<svg xmlns="http://www.w3.org/2000/svg" width="18.077" height="22.627" viewBox="0 0 18.077 22.627">
  <g id="Icon_ionic-ios-notifications-outline" data-name="Icon ionic-ios-notifications-outline" transform="translate(-6.775 -3.93)">
    <path id="Path_82" data-name="Path 82" d="M19.26,28.336a.732.732,0,0,0-.718.577,1.417,1.417,0,0,1-.283.616,1.069,1.069,0,0,1-.91.334,1.087,1.087,0,0,1-.91-.334,1.417,1.417,0,0,1-.283-.616.732.732,0,0,0-.718-.577h0a.737.737,0,0,0-.718.9,2.527,2.527,0,0,0,2.63,2.1,2.522,2.522,0,0,0,2.63-2.1.74.74,0,0,0-.718-.9Z" transform="translate(-1.551 -4.776)" fill="#3e5666"/>
    <path id="Path_83" data-name="Path 83" d="M24.625,20.687c-.871-1.148-2.584-1.821-2.584-6.962,0-5.276-2.33-7.4-4.5-7.906-.2-.051-.351-.119-.351-.334V5.322A1.387,1.387,0,0,0,15.832,3.93H15.8A1.387,1.387,0,0,0,14.44,5.322v.164c0,.209-.147.283-.351.334-2.177.515-4.5,2.63-4.5,7.906,0,5.141-1.714,5.808-2.584,6.962a1.123,1.123,0,0,0,.9,1.8h15.84A1.123,1.123,0,0,0,24.625,20.687Zm-2.206.328H9.232a.248.248,0,0,1-.187-.413,6.851,6.851,0,0,0,1.188-1.889,12.816,12.816,0,0,0,.809-4.988,8.673,8.673,0,0,1,1.182-4.909,3.629,3.629,0,0,1,2.189-1.561,1.982,1.982,0,0,0,1.052-.594.447.447,0,0,1,.673-.011,2.049,2.049,0,0,0,1.063.605,3.629,3.629,0,0,1,2.189,1.561,8.673,8.673,0,0,1,1.182,4.909,12.816,12.816,0,0,0,.809,4.988A6.929,6.929,0,0,0,22.6,20.63.234.234,0,0,1,22.42,21.015Z" transform="translate(0)" fill="#3e5666"/>
  </g>
</svg>
