<?xml version="1.0" encoding="utf-8"?>
<!-- Generator: Adobe Illustrator 25.2.0, SVG Export Plug-In . SVG Version: 6.00 Build 0)  -->
<svg version="1.1" id="Icon_Background" xmlns="http://www.w3.org/2000/svg" xmlns:xlink="http://www.w3.org/1999/xlink" x="0px"
	 y="0px" viewBox="0 0 24 24" style="enable-background:new 0 0 24 24;" xml:space="preserve">
<style type="text/css">
	.st0{fill:none;}
	.st1{fill:#3E5666;}
</style>
<rect id="Rectangle_2508" class="st0" width="24" height="24"/>
<g>
	<path class="st1" d="M18,3H6C4.3,3,3,4.3,3,6v12c0,1.7,1.3,3,3,3c0,0,0,0,0,0c0,0,0,0,0,0c0,0,0,0,0,0h12c1.7,0,3-1.3,3-3V6
		C21,4.3,19.7,3,18,3z M5,6c0-0.6,0.4-1,1-1h12c0.6,0,1,0.4,1,1v5.3l-2.6-3c-0.4-0.4-1.1-0.4-1.5,0L5.6,18.9C5.3,18.8,5,18.4,5,18V6
		z M18,19H8.2l7.4-8.5l3.4,3.9V18C19,18.6,18.6,19,18,19z"/>
	<path class="st1" d="M9,11.5c1.4,0,2.5-1.1,2.5-2.5S10.3,6.5,9,6.5S6.5,7.6,6.5,9S7.6,11.5,9,11.5z M9,8.5c0.3,0,0.5,0.2,0.5,0.5
		S9.2,9.5,9,9.5S8.5,9.2,8.5,9S8.7,8.5,9,8.5z"/>
</g>
</svg>
