<svg xmlns="http://www.w3.org/2000/svg" width="44" height="44" viewBox="0 0 44 44"><defs><style>.a{fill:#3e5666;}</style></defs><g transform="translate(-2 -2)"><path class="a" d="M42.333,6.4H38.667V4.933a2.933,2.933,0,0,0-5.867,0V6.4H26.933V4.933a2.933,2.933,0,0,0-5.867,0V6.4H15.2V4.933a2.933,2.933,0,1,0-5.867,0V6.4H5.667A3.667,3.667,0,0,0,2,10.067V39.4a3.667,3.667,0,0,0,3.667,3.667H26.2a.733.733,0,0,0,0-1.467H5.667a2.207,2.207,0,0,1-2.2-2.2V16.667H44.533V29.133a.733.733,0,1,0,1.467,0V10.067A3.667,3.667,0,0,0,42.333,6.4ZM34.267,4.933a1.467,1.467,0,0,1,2.933,0v4.4a1.467,1.467,0,0,1-2.933,0Zm-11.733,0a1.467,1.467,0,0,1,2.933,0v4.4a1.467,1.467,0,0,1-2.933,0Zm-11.733,0a1.467,1.467,0,0,1,2.933,0v4.4a1.467,1.467,0,0,1-2.933,0ZM44.533,15.2H3.467V10.067a2.207,2.207,0,0,1,2.2-2.2H9.333V9.333a2.933,2.933,0,1,0,5.867,0V7.867h5.867V9.333a2.933,2.933,0,0,0,5.867,0V7.867H32.8V9.333a2.933,2.933,0,0,0,5.867,0V7.867h3.667a2.207,2.207,0,0,1,2.2,2.2Z" transform="translate(0 0)"/><path class="a" d="M27.867,28.467A1.467,1.467,0,0,0,26.4,27H23.467A1.467,1.467,0,0,0,22,28.467v2.2a1.467,1.467,0,0,0,1.467,1.467H26.4a1.467,1.467,0,0,0,1.467-1.467Zm-4.4,2.2v-2.2H26.4v2.2Z" transform="translate(-5.333 -6.667)"/><path class="a" d="M15.867,28.467A1.467,1.467,0,0,0,14.4,27H11.467A1.467,1.467,0,0,0,10,28.467v2.2a1.467,1.467,0,0,0,1.467,1.467H14.4a1.467,1.467,0,0,0,1.467-1.467Zm-4.4,2.2v-2.2H14.4v2.2Z" transform="translate(-2.133 -6.667)"/><path class="a" d="M50.4,32.133a1.467,1.467,0,0,0,1.467-1.467v-2.2A1.467,1.467,0,0,0,50.4,27H47.467A1.467,1.467,0,0,0,46,28.467v2.2a1.467,1.467,0,0,0,1.467,1.467Zm-2.933-3.667H50.4v2.2H47.467Z" transform="translate(-11.733 -6.667)"/><path class="a" d="M27.867,37.467A1.467,1.467,0,0,0,26.4,36H23.467A1.467,1.467,0,0,0,22,37.467v2.2a1.467,1.467,0,0,0,1.467,1.467H26.4a1.467,1.467,0,0,0,1.467-1.467Zm-4.4,2.2v-2.2H26.4v2.2Z" transform="translate(-5.333 -9.067)"/><path class="a" d="M15.867,37.467A1.467,1.467,0,0,0,14.4,36H11.467A1.467,1.467,0,0,0,10,37.467v2.2a1.467,1.467,0,0,0,1.467,1.467H14.4a1.467,1.467,0,0,0,1.467-1.467Zm-4.4,2.2v-2.2H14.4v2.2Z" transform="translate(-2.133 -9.067)"/><path class="a" d="M26.4,45H23.467A1.467,1.467,0,0,0,22,46.467v2.2a1.467,1.467,0,0,0,1.467,1.467H26.4a1.467,1.467,0,0,0,1.467-1.467v-2.2A1.467,1.467,0,0,0,26.4,45Zm-2.933,3.667v-2.2H26.4v2.2Z" transform="translate(-5.333 -11.467)"/><path class="a" d="M35.467,32.133H38.4a1.467,1.467,0,0,0,1.467-1.467v-2.2A1.467,1.467,0,0,0,38.4,27H35.467A1.467,1.467,0,0,0,34,28.467v2.2A1.467,1.467,0,0,0,35.467,32.133Zm0-3.667H38.4v2.2H35.467Z" transform="translate(-8.533 -6.667)"/><path class="a" d="M34,39.667a1.467,1.467,0,0,0,1.467,1.467.733.733,0,1,0,0-1.467v-2.2H38.4A.733.733,0,0,0,38.4,36H35.467A1.467,1.467,0,0,0,34,37.467Z" transform="translate(-8.533 -9.067)"/><path class="a" d="M14.4,45H11.467A1.467,1.467,0,0,0,10,46.467v2.2a1.467,1.467,0,0,0,1.467,1.467H14.4a1.467,1.467,0,0,0,1.467-1.467v-2.2A1.467,1.467,0,0,0,14.4,45Zm-2.933,3.667v-2.2H14.4v2.2Z" transform="translate(-2.133 -11.467)"/><path class="a" d="M45.533,36a9.533,9.533,0,1,0,9.533,9.533A9.533,9.533,0,0,0,45.533,36Zm0,17.6A8.067,8.067,0,1,1,53.6,45.533,8.067,8.067,0,0,1,45.533,53.6Z" transform="translate(-9.067 -9.067)"/><path class="a" d="M51.306,44.73l-5.7,5.7L43.01,47.841a.733.733,0,1,0-1.037,1.037l3.111,3.111a.733.733,0,0,0,1.037,0l6.222-6.222a.733.733,0,1,0-1.037-1.037Z" transform="translate(-10.602 -11.337)"/></g></svg>