<svg id="Icon_Chat" data-name="Icon Chat" xmlns="http://www.w3.org/2000/svg" width="24" height="24" viewBox="0 0 24 24">
  <rect id="Rectangle_2504" data-name="Rectangle 2504" width="24" height="24" fill="none"/>
  <g id="Icon_Chat-2" data-name="Icon Chat" transform="translate(5 5)" fill="none">
    <path d="M0,14V1.556A1.555,1.555,0,0,1,1.556,0H12.444A1.555,1.555,0,0,1,14,1.556V9.333a1.555,1.555,0,0,1-1.556,1.556H3.111Z" stroke="none"/>
    <path d="M 1 11.58578014373779 L 2.404000043869019 10.1817798614502 L 2.696899890899658 9.888890266418457 L 3.111109972000122 9.888890266418457 L 12.44443988800049 9.888890266418457 C 12.75078010559082 9.888890266418457 13 9.639670372009277 13 9.333330154418945 L 13 1.555559992790222 C 13 1.249220013618469 12.75078010559082 1 12.44443988800049 1 L 1.555559992790222 1 C 1.249220013618469 1 1 1.249220013618469 1 1.555559992790222 L 1 11.58578014373779 M -8.881784197001252e-16 14 L -8.881784197001252e-16 1.555559992790222 C -8.881784197001252e-16 0.6961100101470947 0.6961100101470947 -8.881784197001252e-16 1.555559992790222 -8.881784197001252e-16 L 12.44443988800049 -8.881784197001252e-16 C 13.30389022827148 -8.881784197001252e-16 14 0.6961100101470947 14 1.555559992790222 L 14 9.333330154418945 C 14 10.19277954101562 13.30389022827148 10.88889026641846 12.44443988800049 10.88889026641846 L 3.111109972000122 10.88889026641846 L -8.881784197001252e-16 14 Z" stroke="none" fill="#4187f7"/>
  </g>
</svg>
