<?xml version="1.0" encoding="utf-8"?>
<!-- Generator: Adobe Illustrator 25.2.0, SVG Export Plug-In . SVG Version: 6.00 Build 0)  -->
<svg version="1.1" id="Icon_Copy" xmlns="http://www.w3.org/2000/svg" xmlns:xlink="http://www.w3.org/1999/xlink" x="0px" y="0px"
	 viewBox="0 0 24 24" style="enable-background:new 0 0 24 24;" xml:space="preserve">
<style type="text/css">
	.st0{fill:none;}
	.st1{fill:#3E5666;}
</style>
<rect id="Rectangle_2500" class="st0" width="24" height="24"/>
<g>
	<path class="st1" d="M18,8.6h-6.4c-1.7,0-3,1.3-3,3V18c0,1.7,1.3,3,3,3H18c1.7,0,3-1.3,3-3v-6.4C21,9.9,19.7,8.6,18,8.6z M19,18
		c0,0.6-0.4,1-1,1h-6.4c-0.6,0-1-0.4-1-1v-6.4c0-0.6,0.4-1,1-1H18c0.6,0,1,0.4,1,1V18z"/>
	<path class="st1" d="M6.4,13.4H5.6c-0.3,0-0.6-0.3-0.6-0.6V5.6C5,5.3,5.3,5,5.6,5h7.2c0.3,0,0.6,0.3,0.6,0.6v0.8c0,0.6,0.4,1,1,1
		s1-0.4,1-1V5.6c0-1.4-1.2-2.6-2.6-2.6H5.6C4.2,3,3,4.2,3,5.6v7.2c0,1.4,1.2,2.6,2.6,2.6h0.8c0.6,0,1-0.4,1-1S7,13.4,6.4,13.4z"/>
</g>
</svg>
