<?xml version="1.0" encoding="utf-8"?>
<!-- Generator: Adobe Illustrator 25.2.0, SVG Export Plug-In . SVG Version: 6.00 Build 0)  -->
<svg version="1.1" id="Icon_Delete" xmlns="http://www.w3.org/2000/svg" xmlns:xlink="http://www.w3.org/1999/xlink" x="0px"
	 y="0px" viewBox="0 0 24 24" style="enable-background:new 0 0 24 24;" xml:space="preserve">
<style type="text/css">
	.st0{fill:none;}
	.st1{fill:#3E5666;}
</style>
<rect id="Rectangle_2502" class="st0" width="24" height="24"/>
<g>
	<path class="st1" d="M19.4,7h-3.2l0-1.4c0-1.4-1-2.6-2.5-2.6l-3,0C9.3,3.1,8.2,4.2,8.2,5.6V7H5C4.4,7,4,7.4,4,8s0.4,1,1,1h1l0,9.4
		c0,1.4,1,2.6,2.5,2.6l7.5,0c1.4-0.1,2.5-1.2,2.4-2.6V9h1c0.6,0,1-0.4,1-1S20,7,19.4,7z M10.2,5.6c0-0.3,0.2-0.6,0.5-0.6l2.9,0
		c0.3,0,0.5,0.3,0.5,0.6V7h-3.9L10.2,5.6z M16.4,18.4c0,0.3-0.2,0.6-0.5,0.6l-7.4,0C8.2,19,8,18.7,8,18.4V9h8.4L16.4,18.4z"/>
	<path class="st1" d="M10.6,17.4c0.6,0,1-0.4,1-1v-4.9c0-0.6-0.4-1-1-1s-1,0.4-1,1v4.9C9.6,17,10,17.4,10.6,17.4z"/>
	<path class="st1" d="M13.8,17.4c0.6,0,1-0.4,1-1v-4.9c0-0.6-0.4-1-1-1s-1,0.4-1,1v4.9C12.8,17,13.2,17.4,13.8,17.4z"/>
</g>
</svg>
