<svg xmlns="http://www.w3.org/2000/svg" width="18" height="18" viewBox="0 0 18 18">
  <g id="Icon_Draft" data-name="Icon Draft" transform="translate(-1 -1)" opacity="0.503">
    <path id="Path_8748" data-name="Path 8748" d="M2,19a1,1,0,0,1-.969-1.242l.933-3.736a1,1,0,0,1,.263-.465L13.891,1.895a2.98,2.98,0,0,1,4.263,4.166c-.012.013-.061.061-.074.073L6.44,17.773a1,1,0,0,1-.464.263l-3.734.934A1.01,1.01,0,0,1,2,19Zm1.836-4.224-.462,1.85,1.849-.463L16.695,4.692A1,1,0,0,0,17,3.968a.97.97,0,0,0-.3-.69.983.983,0,0,0-1.388.018l-.009.009ZM14.6,2.6h0Z" fill="#3e5666"/>
    <circle id="Ellipse_231" data-name="Ellipse 231" cx="1" cy="1" r="1" transform="translate(10.487 17)" fill="#435664"/>
    <circle id="Ellipse_232" data-name="Ellipse 232" cx="1" cy="1" r="1" transform="translate(13.487 17)" fill="#435664"/>
    <circle id="Ellipse_233" data-name="Ellipse 233" cx="1" cy="1" r="1" transform="translate(16.487 17)" fill="#435664"/>
  </g>
</svg>
