<?xml version="1.0" encoding="utf-8"?>
<!-- Generator: Adobe Illustrator 25.2.0, SVG Export Plug-In . SVG Version: 6.00 Build 0)  -->
<svg version="1.1" id="Icon_Edit" xmlns="http://www.w3.org/2000/svg" xmlns:xlink="http://www.w3.org/1999/xlink" x="0px" y="0px"
	 viewBox="0 0 24 24" style="enable-background:new 0 0 24 24;" xml:space="preserve">
<style type="text/css">
	.st0{fill:none;}
	.st1{fill:#3E5666;}
</style>
<rect id="Rectangle_2501" class="st0" width="24" height="24"/>
<path class="st1" d="M20,4c-1.3-1.3-3.4-1.3-4.6,0c0,0,0,0,0,0L4.5,14.9c-0.1,0.1-0.2,0.3-0.3,0.4L3,19.7c-0.1,0.3,0,0.7,0.3,1
	C3.5,20.9,3.7,21,4,21c0.1,0,0.2,0,0.3,0l4.4-1.2c0.2,0,0.3-0.1,0.4-0.3L20,8.6C21.3,7.3,21.3,5.2,20,4z M18.6,7.2L7.9,17.9
	l-2.5,0.7l0.7-2.5L16.8,5.4c0.5-0.5,1.3-0.5,1.8,0S19.1,6.7,18.6,7.2z"/>
</svg>
