<?xml version="1.0" encoding="utf-8"?>
<!-- Generator: Adobe Illustrator 25.2.0, SVG Export Plug-In . SVG Version: 6.00 Build 0)  -->
<svg version="1.1" id="Icon_Email" xmlns="http://www.w3.org/2000/svg" xmlns:xlink="http://www.w3.org/1999/xlink" x="0px" y="0px"
	 viewBox="0 0 24 24" style="enable-background:new 0 0 24 24;" xml:space="preserve">
<style type="text/css">
	.st0{fill:none;}
	.st1{fill:#4187F7;}
</style>
<rect id="Rectangle_2506" class="st0" width="24" height="24"/>
<path class="st1" d="M17.3,6H6.6c0,0,0,0,0,0c-1,0-1.8,0.9-1.8,1.9v8.2c0,1,0.8,1.9,1.8,1.9h10.7c1,0,1.8-0.9,1.8-1.9V7.9
	C19.2,6.9,18.4,6,17.3,6z M6.7,7h10.7c0.4,0,0.7,0.3,0.8,0.6L12,12.1L5.9,7.6C5.9,7.3,6.3,7,6.7,7z M17.3,17H6.7
	c-0.5,0-0.9-0.4-0.8-0.9V8.9l5.9,4.2c0.1,0.1,0.2,0.1,0.3,0.1s0.2,0,0.3-0.1l5.9-4.2v7.3C18.2,16.6,17.8,17,17.3,17z"/>
</svg>
