<svg id="Raise_Hand_-_Question" data-name="Raise Hand - Question" xmlns="http://www.w3.org/2000/svg" xmlns:xlink="http://www.w3.org/1999/xlink" width="27.793" height="24.002" viewBox="0 0 27.793 24.002">
  <defs>
    <linearGradient id="linear-gradient" x1="0.5" x2="0.5" y2="1" gradientUnits="objectBoundingBox">
      <stop offset="0" stop-color="#fff600"/>
      <stop offset="0.512" stop-color="#ffb800"/>
      <stop offset="1" stop-color="#ffb100"/>
    </linearGradient>
  </defs>
  <path id="Subtraction_1" data-name="Subtraction 1" d="M21898.3-2262.8a3.863,3.863,0,0,1-3.35-1.969,8.812,8.812,0,0,0-3.338-2.833l-.166-.1-.09-.055c-.193-.116-.373-.226-.549-.34-.652-.444-.9-.909-.736-1.381a.807.807,0,0,1,.809-.633,2.765,2.765,0,0,1,1.287.446l.369.22.049.029c.4.239.857.51,1.309.73l.033.014a.834.834,0,0,0,.3.08.238.238,0,0,0,.2-.1c.242-.3.043-1.335-.166-2.283l-.029-.134q-.009-.05-.018-.093l-.029-.141c-.076-.478-.162-.95-.244-1.408l-.01-.05c-.045-.267-.092-.534-.139-.8-.035-.2-.068-.4-.1-.6l-.012-.066c-.02-.147-.045-.3-.068-.439l-.031-.183c-.041-.23-.072-.416-.105-.622a.888.888,0,0,1,.182-.732,1.1,1.1,0,0,1,.832-.363.887.887,0,0,1,.924.765l.869,5.364.021.038a.092.092,0,0,0,.078.039.1.1,0,0,0,.1-.1v-.049l-.016.011c.016-.221.033-1.232.033-7.14a1.115,1.115,0,0,1,1-1.128h.033a1.038,1.038,0,0,1,1,1.045l-.018,7.5.139.011.727-6.739a1.087,1.087,0,0,1,1.018-1.012,1.024,1.024,0,0,1,.752.352,1.08,1.08,0,0,1,.26.809l-.754,6.667.121.044.012-.017c.021-.033.074-.208.549-1.848.232-.811.682-2.359.709-2.415a.92.92,0,0,1,.914-.71,1.153,1.153,0,0,1,.908.435.954.954,0,0,1,.143.858c-.121.4-.244.814-.344,1.15l-.074.253-.029.1a10.069,10.069,0,0,0-3.445,3.568,10,10,0,0,0-1.307,4.945c0,.3.016.625.047.957l-.018,0-.018,0A3.251,3.251,0,0,1,21898.3-2262.8Z" transform="translate(-21890.02 2278.802)" fill="url(#linear-gradient)"/>
  <circle id="Ellipse_219" data-name="Ellipse 219" cx="9" cy="9" r="9" transform="translate(9.793 6.002)" fill="#4eb3b2"/>
  <path id="sign" d="M4.135,5.3A4.541,4.541,0,0,0,.1,7.436a.563.563,0,0,0,.122.77l1.014.766a.563.563,0,0,0,.78-.1A2.273,2.273,0,0,1,3.952,7.717c.721,0,1.613.464,1.613,1.163,0,.528-.436.8-1.148,1.2-.83.468-1.929,1.045-1.929,2.5V12.8a.563.563,0,0,0,.563.563h1.7A.563.563,0,0,0,5.31,12.8v-.135c0-1,2.935-1.046,2.935-3.764,0-2.046-2.123-3.6-4.11-3.6M3.9,14.054a1.623,1.623,0,1,0,1.623,1.623A1.623,1.623,0,0,0,3.9,14.054" transform="translate(14.67 3.703)" fill="#f1f2f3"/>
</svg>
