<svg id="Raise_Hand_-_Escalation" data-name="Raise Hand - Escalation" xmlns="http://www.w3.org/2000/svg" xmlns:xlink="http://www.w3.org/1999/xlink" width="24.603" height="24.001" viewBox="0 0 24.603 24.001">
  <defs>
    <linearGradient id="linear-gradient" x1="0.5" x2="0.5" y2="1" gradientUnits="objectBoundingBox">
      <stop offset="0" stop-color="#fff600"/>
      <stop offset="0.512" stop-color="#ffb800"/>
      <stop offset="1" stop-color="#ffb100"/>
    </linearGradient>
  </defs>
  <path id="Subtraction_2" data-name="Subtraction 2" d="M21446.242-2255a3.865,3.865,0,0,1-3.34-1.966,8.754,8.754,0,0,0-3.316-2.824l-.014-.009c-.279-.167-.551-.33-.8-.5-.652-.443-.9-.907-.736-1.379a.806.806,0,0,1,.807-.63,2.686,2.686,0,0,1,1.283.447c.113.065.371.216.371.216.367.219.869.52,1.352.76l.043.017a.826.826,0,0,0,.3.075.25.25,0,0,0,.2-.1c.236-.293.049-1.286-.164-2.279-.029-.112-.047-.2-.061-.277l-.008-.043-.01-.051c-.057-.346-.119-.7-.182-1.045l-.041-.229-.031-.186-.033-.183c-.076-.433-.15-.857-.219-1.282l-.025-.15c-.02-.132-.045-.3-.078-.47-.035-.2-.068-.407-.1-.625a.879.879,0,0,1,.184-.727,1.1,1.1,0,0,1,.828-.366.89.89,0,0,1,.922.765l.867,5.365.021.038a.092.092,0,0,0,.076.038.1.1,0,0,0,.1-.1v-.054l-.01.016c.014-.214.031-1.218.031-7.143a1.111,1.111,0,0,1,1-1.126h.031a1.038,1.038,0,0,1,1,1.045l-.021,7.5.141.005.721-6.733a1.088,1.088,0,0,1,1.014-1.013,1.044,1.044,0,0,1,.754.35,1.085,1.085,0,0,1,.264.813l-.754,6.669.119.038.01-.011c.021-.038.07-.2.549-1.853.254-.881.684-2.357.707-2.419a.922.922,0,0,1,.916-.706,1.153,1.153,0,0,1,.9.436.955.955,0,0,1,.141.857c-.066.222-.133.444-.2.666a2.015,2.015,0,0,0-.342.482l-5.082,9.867h-.078Z" transform="translate(-21437.984 2271.001)" fill="url(#linear-gradient)"/>
  <path id="triangle" d="M524.912,43.775,516.67,59.729a1.025,1.025,0,0,0,.945,1.48H534.1a1.025,1.025,0,0,0,.945-1.48L526.8,43.775A1.073,1.073,0,0,0,524.912,43.775Z" transform="translate(-510.555 -37.208)" fill="#ff4003" opacity="0.998"/>
  <g id="_" data-name="!" transform="translate(6.883 -3.41)">
    <path id="Path_2578" data-name="Path 2578" d="M8.671,19.92a1.577,1.577,0,0,1-1.614-1.539v-4.1a1.615,1.615,0,0,1,3.227,0v4.1A1.577,1.577,0,0,1,8.671,19.92" transform="translate(-0.25 0.671)" fill="#f0f1f2"/>
    <path id="Path_2579" data-name="Path 2579" d="M8.67,17.821a1.613,1.613,0,1,1-1.613,1.613A1.612,1.612,0,0,1,8.67,17.821" transform="translate(-0.25 4.365)" fill="#f0f1f2"/>
  </g>
</svg>
