<svg xmlns="http://www.w3.org/2000/svg" xmlns:xlink="http://www.w3.org/1999/xlink" width="21.051" height="24" viewBox="0 0 21.051 24">
  <defs>
    <linearGradient id="linear-gradient" x1="0.5" x2="0.5" y2="1" gradientUnits="objectBoundingBox">
      <stop offset="0" stop-color="#fff600"/>
      <stop offset="0.512" stop-color="#ffb800"/>
      <stop offset="1" stop-color="#ffb100"/>
    </linearGradient>
  </defs>
  <path id="Path_8576" data-name="Path 8576" d="M12.621,24.2a5.815,5.815,0,0,1-5.032-2.957C6.48,19.335,4.506,18.149,2.6,17c-.425-.255-.825-.5-1.211-.74C.4,15.592.029,14.891.275,14.181A1.223,1.223,0,0,1,1.5,13.227a4.071,4.071,0,0,1,1.931.67l.557.329c.659.391,1.34.795,2.032,1.136a1.364,1.364,0,0,0,.5.136.357.357,0,0,0,.287-.139c.361-.448.062-2-.248-3.413-.054-.249-.1-.436-.115-.554-.122-.73-.25-1.46-.379-2.191s-.259-1.462-.38-2.193c-.045-.306-.1-.615-.15-.923-.057-.334-.109-.637-.153-.94a1.312,1.312,0,0,1,.275-1.1A1.644,1.644,0,0,1,6.911,3.5,1.334,1.334,0,0,1,8.3,4.65L9.61,12.686l.028.055a.137.137,0,0,0,.245-.088v-.061l-.019.019c.047-.883.05-9.02.05-10.716A1.669,1.669,0,0,1,11.419.2h.051a1.562,1.562,0,0,1,1.509,1.572l-.03,11.24.19.011L14.227,2.934A1.634,1.634,0,0,1,15.76,1.413,1.538,1.538,0,0,1,16.9,1.94a1.622,1.622,0,0,1,.4,1.22l-1.128,9.987.164.057.011-.017c.03-.048.108-.306.821-2.769l.014-.05c.428-1.474,1.013-3.493,1.05-3.573a1.389,1.389,0,0,1,1.38-1.067,1.736,1.736,0,0,1,1.367.656,1.419,1.419,0,0,1,.214,1.3c-.21.7-.416,1.4-.621,2.105l-.017.056c-.254.866-.516,1.762-.79,2.656-.082.272-.169.546-.255.82a19.573,19.573,0,0,0-.812,3.177c-.049.358-.083.726-.113,1.051l0,.026A9.409,9.409,0,0,1,18,20.446a6.4,6.4,0,0,1-2.808,3.118,5.328,5.328,0,0,1-1.787.579A5.525,5.525,0,0,1,12.621,24.2Z" transform="translate(-0.201 -0.2)" fill="url(#linear-gradient)"/>
</svg>
