<?xml version="1.0" encoding="utf-8"?>
<!-- Generator: Adobe Illustrator 25.0.1, SVG Export Plug-In . SVG Version: 6.00 Build 0)  -->
<svg version="1.1" id="Layer_1" xmlns="http://www.w3.org/2000/svg" xmlns:xlink="http://www.w3.org/1999/xlink" x="0px" y="0px"
	 viewBox="0 0 512 512" style="enable-background:new 0 0 512 512;" xml:space="preserve">
<style type="text/css">
	.st0{fill:#EF5726;}
	.st1{fill:#FFFFFF;}
</style>
<circle class="st0" cx="256" cy="256" r="256"/>
<path class="st1" d="M438,260.8l-0.5-0.5c-7.8-8.7-21.3-9.5-30-1.6l-0.9,0.9L381.2,285c-4.1,5.6-12,6.8-17.6,2.6
	c-0.6-0.4-1.2-1-1.7-1.5c-3.1-3.6-1.9-14.9-1-21.9l12.8-104.8c1.3-9.4-5.2-18-14.6-19.3c-9.4-1.3-18,5.2-19.3,14.6l0,0
	c0,0.2,0,0.4,0,0.5l-14.1,82.4c-0.7,2-2.3,2.4-2.4-0.3l-4.9-107.1c0-9.4-7.7-17.1-17.1-17.1c-9.4,0-17,7.6-17.1,17.1l-0.5,107.8
	c0,1.2-1,1.6-1.2,0.2l-15.2-84.2c-1.3-9.4-10-15.8-19.4-14.5c-9.4,1.3-15.8,10-14.5,19.4c0,0.4,0,0.7,0.2,1.1l13.6,98.6
	c0,1.8-0.6,2.8-1.4,0.5l-20.2-54c-3.1-9-12.9-13.9-21.9-10.9c-9,3.4-13.6,13.3-10.4,22.4l4.9,15.9l64.1,104.1c3.3,5.1,5,11,4.9,17.1
	c-0.1,7.4-2.7,14.6-7.5,20.3c12.3,8.2,26.7,12.6,41.4,12.7c21.9-0.2,43.2-7.4,60.7-20.6c27.3-22.9,53-47.7,77-74.1
	c8.3-8.8,7.9-22.6-0.8-30.9 M234.7,376.6H90.3c-12.9,0-23.3-10.4-23.4-23.3c0-4.4,1.3-8.8,3.7-12.5l71.9-117
	c6.8-11,21.1-14.4,32.1-7.7c3.2,2,5.9,4.6,7.8,7.9l72.1,117c2.3,3.6,3.6,7.9,3.5,12.2C258,366.2,247.5,376.6,234.7,376.6
	C234.6,376.6,234.6,376.6,234.7,376.6 M162.5,233.2c-1-0.1-1.9,0.4-2.4,1.2L87.4,353.3c0.1,1.6,1.3,2.8,2.9,2.8h144.4
	c1.6,0,2.8-1.2,2.9-2.8c0-0.4,0-0.7-0.2-1.1l-72.4-117.6C164.4,233.7,163.5,233.2,162.5,233.2L162.5,233.2z M162.5,315.1
	c-5.7,0-10.2-4.6-10.2-10.2l0,0v-27.3c0-5.7,4.6-10.2,10.2-10.2c5.7,0,10.2,4.6,10.2,10.2v27.3C172.7,310.6,168.1,315.1,162.5,315.1
	L162.5,315.1 M162.5,328.8c5.7,0,10.2,4.6,10.2,10.2c0,5.7-4.6,10.2-10.2,10.2s-10.2-4.6-10.2-10.2
	C152.2,333.4,156.8,328.8,162.5,328.8L162.5,328.8"/>
</svg>
