<?xml version="1.0" encoding="utf-8"?>
<!-- Generator: Adobe Illustrator 25.0.1, SVG Export Plug-In . SVG Version: 6.00 Build 0)  -->
<svg version="1.1" id="Layer_1" xmlns="http://www.w3.org/2000/svg" xmlns:xlink="http://www.w3.org/1999/xlink" x="0px" y="0px"
	 viewBox="0 0 512 512" style="enable-background:new 0 0 512 512;" xml:space="preserve">
<style type="text/css">
	.st0{fill:#4187F7;}
	.st1{fill:#FFFFFF;}
</style>
<path class="st0" d="M512,256c0,141.4-114.6,256-256,256S0,397.4,0,256S114.6,0,256,0S512,114.6,512,256z"/>
<path class="st1" d="M359.2,173.6c-13.6-0.1-24.7,10.9-24.7,24.5c0,0.1,0,0.2,0,0.3v52.8h-4.9V144.4c0.1-13.6-10.9-24.7-24.5-24.7
	c-0.1,0-0.1,0-0.2,0c-13.2,0.3-23.7,11.1-23.8,24.2v107.3h-4.9V120.7c0.1-13.6-10.9-24.7-24.5-24.7c-0.1,0-0.1,0-0.2,0
	c-13.2,0.3-23.7,11.1-23.8,24.2v131h-4.9V145c0.1-13.6-10.9-24.7-24.5-24.7c-0.1,0-0.1,0-0.2,0c-13.2,0.3-23.7,11.1-23.8,24.2v143.1
	l-19.2-26.4c-7.9-10.8-23.1-13.2-33.9-5.4s-13.2,23.1-5.4,33.9c0,0,0,0,0,0l76.1,104.7c5.5,7.5,14.2,12,23.5,12h119.8
	c13.5,0,25.2-9.3,28.3-22.4l16.1-68.3c2.1-8.7,3.1-17.7,3.1-26.6v-91.2C382.9,184.7,372.4,173.9,359.2,173.6z"/>
</svg>
