<?xml version="1.0" encoding="utf-8"?>
<!-- Generator: Adobe Illustrator 25.0.1, SVG Export Plug-In . SVG Version: 6.00 Build 0)  -->
<svg version="1.1" id="Layer_1" xmlns="http://www.w3.org/2000/svg" xmlns:xlink="http://www.w3.org/1999/xlink" x="0px" y="0px"
	 viewBox="0 0 512 512" style="enable-background:new 0 0 512 512;" xml:space="preserve">
<style type="text/css">
	.st0{fill:#3FD983;}
	.st1{fill:#FFFFFF;}
</style>
<circle class="st0" cx="256" cy="256" r="256"/>
<path class="st1" d="M393.9,128.3C393.9,128.3,393.9,128.3,393.9,128.3C393.9,128.3,393.9,128.3,393.9,128.3L393.9,128.3z
	 M393.9,128.3c-9.1-0.1-16.5,7.2-16.7,16.3v86.5c0,3.9-3.1,7-7,7c-3.9,0-7-3.1-7-7V103.5c0-9.2-7.5-16.7-16.7-16.7
	s-16.7,7.5-16.7,16.7v100.3c0,3.9-3.1,7-7,7c-3.9,0-7-3.1-7-7V89.8c0-9.2-7.5-16.7-16.7-16.7c-9.2,0-16.7,7.5-16.7,16.7v127.6
	c0,3.9-3.1,7-7,7c-3.9,0-7-3.1-7-7V117.2c0-9.2-7.5-16.7-16.7-16.7c-9.2,0-16.7,7.5-16.7,16.7v172.6l-22.2-18.7
	c-2.7-2.4-5.3-4.5-7.9-6.5c-4.2,2.9-8.4,5.4-12.2,7.5c-4.3,2.1-8.3,4.8-11.8,8.1l0.1,1.8c0,4.7-1.7,9.2-4.7,12.8l5.3,5.9
	c15.2,17.1,55.3,72.7,89.6,92.6c9.7,5.9,20.8,9,32.1,9h45.2c36.4,0,62-30,62-73.7V144.6C410.4,135.5,403,128.3,393.9,128.3z
	 M146.3,190.8c12.9,0,29,8.3,29,20.9c0,9.5-7.8,14.4-20.6,21.5c-14.9,8.4-34.6,18.7-34.6,44.8v4c0,5.6,4.5,10.1,10.1,10.1h30.6
	c5.6,0,10.1-4.5,10.1-10.1v-2.4c0-18,52.7-18.8,52.7-67.6c-4-37.5-36.1-65.7-73.9-64.7c-29.3-1.2-57,13.5-72.5,38.4
	c-3.1,4.5-2.1,10.5,2.2,13.8l18.2,13.7c4.4,3.3,10.6,2.5,14-1.8C118.7,198.9,131.8,191.1,146.3,190.8z M145.4,304.5
	c-16.2,0-29.3,13.1-29.3,29.3s13.1,29.3,29.3,29.3c16.2,0,29.3-13.1,29.3-29.3S161.5,304.5,145.4,304.5z"/>
</svg>
