<?xml version="1.0" encoding="utf-8"?>
<!-- Generator: Adobe Illustrator 25.2.0, SVG Export Plug-In . SVG Version: 6.00 Build 0)  -->
<svg version="1.1" id="Icon_Lock" xmlns="http://www.w3.org/2000/svg" xmlns:xlink="http://www.w3.org/1999/xlink" x="0px" y="0px"
	 viewBox="0 0 24 24" style="enable-background:new 0 0 24 24;" xml:space="preserve">
<style type="text/css">
	.st0{fill:none;}
	.st1{opacity:0.5;fill:#435664;}
</style>
<rect id="Rectangle_2505" class="st0" width="24" height="24"/>
<path class="st1" d="M17.3,9.1h-0.6l0-1.7c-0.1-2.5-2.2-4.4-4.6-4.4c0,0-0.1,0-0.1,0C9.6,3,7.6,4.9,7.5,7.4v1.7H6.9
	c-1.7,0-3,1.3-3,3V18c0,1.7,1.3,3,3,3h10.4c1.7,0,3-1.3,3-3v-5.9C20.3,10.4,19,9.1,17.3,9.1z M12.2,5c1.4,0,2.5,1,2.6,2.4v1.7H9.5
	l0-1.7C9.6,6,10.7,5,12.2,5z M18.3,18c0,0.6-0.4,1-1,1H6.9c-0.6,0-1-0.4-1-1v-5.9c0-0.6,0.4-1,1-1h10.4c0.6,0,1,0.4,1,1V18z"/>
</svg>
