<?xml version="1.0" encoding="utf-8"?>
<!-- Generator: Adobe Illustrator 25.0.1, SVG Export Plug-In . SVG Version: 6.00 Build 0)  -->
<svg version="1.1" id="Layer_1" xmlns="http://www.w3.org/2000/svg" xmlns:xlink="http://www.w3.org/1999/xlink" x="0px" y="0px"
	 viewBox="0 0 249 512" style="enable-background:new 0 0 249 512;" xml:space="preserve">
<style type="text/css">
	.st0{fill:#FFFFFF;}
</style>
<path transform="translate(-997 -986.649)" class="st0" d="M1122.5,1146c-69.3,0.6-125,57.2-124.5,126.5v100.7
	c-1,68.8,54,125.4,122.7,126.3c68.8,1,125.3-54,126.3-122.8c0-1.1,0-2.1,0-3.2v-101.1C1247.4,1203.3,1191.8,1146.7,1122.5,1146z
	 M1223.6,1373.7c-0.1,55.8-45.4,101-101.3,100.9s-101-45.5-100.9-101.3v-100.7c0-55.8,45.2-101.1,101-101.2
	c55.8,0,101.1,45.2,101.1,101.1c0,0,0,0.1,0,0.1V1373.7z M1122.5,1242.9c-6.5,0-11.7,5.2-11.7,11.7v41c0,6.5,5.2,11.7,11.7,11.7
	s11.7-5.2,11.7-11.7l0,0v-41C1134.2,1248.1,1129,1242.9,1122.5,1242.9C1122.5,1242.9,1122.5,1242.9,1122.5,1242.9z"/>
</svg>
