<svg xmlns="http://www.w3.org/2000/svg" width="42" height="42" viewBox="0 0 42 42"><defs><style>.a{fill:#3e5666;}.b{fill:none;stroke:#3e5666;stroke-linecap:round;stroke-linejoin:round;stroke-width:1.5px;}</style></defs><path class="a" d="M39.2,4.9H36.4V4.2A4.2,4.2,0,0,0,32.2,0H7A4.2,4.2,0,0,0,2.8,4.2V6.3H2.1a2.1,2.1,0,1,0,0,4.2h.7v2.1H2.1a2.1,2.1,0,1,0,0,4.2h.7v2.1H2.1a2.1,2.1,0,0,0,0,4.2h.7v2.1H2.1a2.1,2.1,0,1,0,0,4.2h.7v2.1H2.1a2.1,2.1,0,0,0,0,4.2h.7v2.1A4.2,4.2,0,0,0,7,42H32.2a4.2,4.2,0,0,0,4.2-4.2h2.8A2.8,2.8,0,0,0,42,35V32.2a2.822,2.822,0,0,0-.206-1.05A2.822,2.822,0,0,0,42,30.1V27.3a2.822,2.822,0,0,0-.206-1.05A2.822,2.822,0,0,0,42,25.2V22.4a2.822,2.822,0,0,0-.206-1.05A2.822,2.822,0,0,0,42,20.3V17.5a2.822,2.822,0,0,0-.206-1.05A2.822,2.822,0,0,0,42,15.4V12.6a2.811,2.811,0,0,0-.21-1.05A2.787,2.787,0,0,0,42,10.5V7.7A2.8,2.8,0,0,0,39.2,4.9ZM1.4,8.4a.7.7,0,0,1,.7-.7H4.9a.7.7,0,1,1,0,1.4H2.1A.7.7,0,0,1,1.4,8.4Zm0,6.3a.7.7,0,0,1,.7-.7H4.9a.7.7,0,1,1,0,1.4H2.1A.7.7,0,0,1,1.4,14.7Zm0,6.3a.7.7,0,0,1,.7-.7H4.9a.7.7,0,1,1,0,1.4H2.1A.7.7,0,0,1,1.4,21Zm0,6.3a.7.7,0,0,1,.7-.7H4.9a.7.7,0,1,1,0,1.4H2.1A.7.7,0,0,1,1.4,27.3Zm0,6.3a.7.7,0,0,1,.7-.7H4.9a.7.7,0,0,1,0,1.4H2.1A.7.7,0,0,1,1.4,33.6Zm2.8,4.2V35.7h.7a2.1,2.1,0,1,0,0-4.2H4.2V29.4h.7a2.1,2.1,0,1,0,0-4.2H4.2V23.1h.7a2.1,2.1,0,0,0,0-4.2H4.2V16.8h.7a2.1,2.1,0,1,0,0-4.2H4.2V10.5h.7a2.1,2.1,0,1,0,0-4.2H4.2V4.2A2.8,2.8,0,0,1,7,1.4H8.4V40.6H7A2.8,2.8,0,0,1,4.2,37.8Zm30.8,0a2.8,2.8,0,0,1-2.8,2.8H9.8V1.4H32.2A2.8,2.8,0,0,1,35,4.2Zm4.2-14.7a2.792,2.792,0,0,0,1.4-.377V25.2a1.4,1.4,0,0,1-1.4,1.4H36.4V23.1Zm-2.8-1.4V18.2h2.8a2.792,2.792,0,0,0,1.4-.377V20.3a1.4,1.4,0,0,1-1.4,1.4ZM39.2,28a2.792,2.792,0,0,0,1.4-.377V30.1a1.4,1.4,0,0,1-1.4,1.4H36.4V28Zm1.213-11.9a1.4,1.4,0,0,1-1.213.7H36.4V13.3h2.8a2.771,2.771,0,0,0,1.4-.389V15.4A1.4,1.4,0,0,1,40.413,16.1ZM39.2,6.3a1.4,1.4,0,0,1,1.4,1.4v2.8a1.4,1.4,0,0,1-1.4,1.4H36.4V6.3Zm0,30.1H36.4V32.9h2.8a2.792,2.792,0,0,0,1.4-.377V35A1.4,1.4,0,0,1,39.2,36.4Z"/><path class="a" d="M36.5,40H19.7a.7.7,0,1,0,0,1.4H36.5a.7.7,0,1,0,0-1.4Z" transform="translate(-5.7 -12)"/><path class="a" d="M36.5,44H19.7a.7.7,0,1,0,0,1.4H36.5a.7.7,0,1,0,0-1.4Z" transform="translate(-5.7 -13.2)"/><path class="a" d="M34.5,48H24.7a.7.7,0,1,0,0,1.4h9.8a.7.7,0,1,0,0-1.4Z" transform="translate(-7.2 -14.4)"/><path class="b" d="M16.79,13.22v2.055a1.37,1.37,0,0,1-1.493,1.37,13.555,13.555,0,0,1-5.911-2.1,13.357,13.357,0,0,1-4.11-4.11,13.555,13.555,0,0,1-2.1-5.939A1.37,1.37,0,0,1,4.536,3H6.591a1.37,1.37,0,0,1,1.37,1.178A8.8,8.8,0,0,0,8.441,6.1a1.37,1.37,0,0,1-.308,1.445l-.87.87a10.959,10.959,0,0,0,4.11,4.11l.87-.87a1.37,1.37,0,0,1,1.445-.308,8.8,8.8,0,0,0,1.925.479A1.37,1.37,0,0,1,16.79,13.22Z" transform="translate(10.891 5.75)"/></svg>