<?xml version="1.0" encoding="utf-8"?>
<!-- Generator: Adobe Illustrator 25.2.0, SVG Export Plug-In . SVG Version: 6.00 Build 0)  -->
<svg version="1.1" id="Layer_1" xmlns="http://www.w3.org/2000/svg" xmlns:xlink="http://www.w3.org/1999/xlink" x="0px" y="0px"
	 viewBox="0 0 24 24" style="enable-background:new 0 0 24 24;" xml:space="preserve">
<style type="text/css">
	.st0{fill:none;}
	.st1{fill:#3E5666;}
</style>
<g id="Icon_Desk" transform="translate(-1465 -376)">
	<rect id="Rectangle_2508" x="1465" y="376" class="st0" width="24" height="24"/>
	<g>
		<path class="st1" d="M1483,379h-12c-1.7,0-3,1.3-3,3v12c0,1.7,1.3,3,3,3h12c1.7,0,3-1.3,3-3v-12C1486,380.3,1484.7,379,1483,379z
			 M1484,394c0,0.6-0.4,1-1,1h-12c-0.6,0-1-0.4-1-1v-12c0-0.6,0.4-1,1-1h12c0.6,0,1,0.4,1,1V394z"/>
		<path class="st1" d="M1481,387h-3v-3c0-0.6-0.4-1-1-1c-0.6,0-1,0.4-1,1v3h-3c-0.6,0-1,0.4-1,1c0,0.6,0.4,1,1,1h3v3
			c0,0.6,0.4,1,1,1c0.6,0,1-0.4,1-1v-3h3c0.6,0,1-0.4,1-1C1482,387.4,1481.6,387,1481,387z"/>
	</g>
</g>
</svg>
