<svg xmlns="http://www.w3.org/2000/svg" width="42.001" height="42" viewBox="0 0 42.001 42"><defs><style>.a{fill:#3e5666;}</style></defs><path class="a" d="M876.422,427H889.5a2.124,2.124,0,0,1,2.3,2.319q0,11.655,0,23.311A2.145,2.145,0,0,1,889.413,455l-26.066,0A2.126,2.126,0,0,1,861,452.669q0-11.743,0-23.486a2.1,2.1,0,0,1,2.21-2.187Q869.818,426.994,876.422,427Zm-14.016,7.02v.312q0,9.183,0,18.366c0,.68.23.9.932.9H889.4c.8,0,1-.2,1-1.011q0-9.052,0-18.1v-.463Zm27.993-1.439c0-1.069,0-2.1,0-3.134,0-.866-.178-1.048-1.045-1.048H869.762q-3.258,0-6.516,0c-.5,0-.814.192-.824.593-.028,1.189-.01,2.38-.01,3.587Z" transform="translate(-849.8 -412.995)"/><path class="a" d="M762.377,273.988h-28v.465q0,9.118,0,18.237c0,.659.231.891.894.892,2.245,0,4.49-.009,6.735.014a1,1,0,0,1,.7.311.675.675,0,0,1-.591,1.068c-.743.015-1.487.006-2.23.005-1.56,0-3.12,0-4.679,0a2.116,2.116,0,0,1-2.235-2.257q0-11.7,0-23.4a2.134,2.134,0,0,1,2.327-2.341l26.153,0a2.117,2.117,0,0,1,2.319,2.3q.006,4.679,0,9.359c0,.058,0,.117,0,.175-.016.494-.266.768-.7.77s-.7-.272-.7-.766c-.005-1.443,0-2.886,0-4.33Zm0-1.42c0-1.08,0-2.113,0-3.146,0-.863-.178-1.038-1.055-1.038H743.263q-4,0-8,0c-.622,0-.87.235-.88.821-.006.364,0,.729,0,1.093v2.268Z" transform="translate(-732.977 -266.983)"/><path class="a" d="M1119.338,278.538c.268.257.543.507.8.771.373.38.389.75.062,1.068a.668.668,0,0,1-1.038-.062q-1.012-1-2.009-2.011a.7.7,0,0,1,.014-1.141q.967-.981,1.95-1.946a.705.705,0,1,1,.987.988c-.249.255-.517.492-.84.8a17.109,17.109,0,0,1,1.757.12,3.429,3.429,0,0,1,2.846,3.3c.029,1.414.013,2.828.007,4.242,0,.495-.266.775-.695.778-.444,0-.7-.285-.7-.811,0-1.312,0-2.624,0-3.936a2.088,2.088,0,0,0-2.234-2.248c-.286,0-.572,0-.858,0Z" transform="translate(-1083.283 -274.241)"/><path class="a" d="M744.4,621.388c0,1.283-.019,2.566.006,3.848a2.049,2.049,0,0,0,2.053,2.023c.466.013.933,0,1.4.007a.673.673,0,0,1,.733.694.665.665,0,0,1-.729.7,12.716,12.716,0,0,1-2-.075A3.423,3.423,0,0,1,743,625.2c-.016-1.137,0-2.274,0-3.412a.974.974,0,0,0-.1-.483c-.245.258-.481.524-.736.773a.707.707,0,1,1-1-.981q.982-1,1.982-1.976a.69.69,0,0,1,1.108.006q1,.979,1.981,1.977a.705.705,0,1,1-.994.984c-.257-.25-.5-.517-.744-.777Z" transform="translate(-740.195 -588.064)"/><path class="a" d="M819.93,378.986q3.082,0,6.164,0c.484,0,.748.186.813.555.087.5-.222.839-.792.841-1.909.006-3.818,0-5.726,0q-3.322,0-6.644,0c-.53,0-.8-.211-.839-.626-.04-.477.243-.771.775-.773,1.574-.006,3.147,0,4.721,0Z" transform="translate(-805.908 -369.185)"/><path class="a" d="M783.6,476.365c-.683,0-1.367.005-2.05,0-.5,0-.768-.251-.771-.689a.675.675,0,0,1,.761-.706q2.05-.012,4.1,0a.7.7,0,1,1,.009,1.394C784.962,476.373,784.279,476.365,783.6,476.365Z" transform="translate(-776.593 -456.766)"/><path class="a" d="M783.786,428.367c-.669,0-1.338.006-2.006,0-.516-.006-.806-.275-.8-.718.009-.427.289-.679.785-.681q2.007-.006,4.013,0c.515,0,.809.273.8.713-.01.423-.292.677-.788.683C785.124,428.373,784.455,428.367,783.786,428.367Z" transform="translate(-776.783 -412.967)"/><path class="a" d="M783.7,524.37c-.67,0-1.341.005-2.011,0-.5-.005-.772-.25-.778-.686a.674.674,0,0,1,.761-.709q2.033-.012,4.065,0a.687.687,0,0,1,.766.71c-.009.418-.3.68-.792.685C785.039,524.376,784.368,524.37,783.7,524.37Z" transform="translate(-776.715 -500.571)"/><path class="a" d="M991.063,378.972c.45,0,.9-.007,1.351,0a.7.7,0,1,1,0,1.393q-1.373.017-2.746,0a.7.7,0,1,1,0-1.394C990.133,378.964,990.6,378.972,991.063,378.972Z" transform="translate(-966.555 -369.171)"/><path class="a" d="M963.427,586.909a3.031,3.031,0,0,1,1.8.568.665.665,0,0,1,.229,1.011.686.686,0,0,1-1,.155,1.731,1.731,0,0,0-2.367.271c-1.137,1.129-2.282,2.25-3.4,3.4a1.736,1.736,0,0,0,.836,2.953,1.614,1.614,0,0,0,1.537-.405c.358-.32.693-.667,1.044-.994a.7.7,0,1,1,.977.991c-.37.371-.741.744-1.136,1.088a3.141,3.141,0,0,1-4.25-.139,3.064,3.064,0,0,1-.225-4.2c1.266-1.385,2.629-2.684,3.982-3.986A2.762,2.762,0,0,1,963.427,586.909Z" transform="translate(-937.167 -558.918)"/><path class="a" d="M1022.011,538.941a3.021,3.021,0,0,1,2.762,1.861,2.928,2.928,0,0,1-.53,3.376c-1.214,1.3-2.486,2.545-3.776,3.769a3.073,3.073,0,0,1-3.767.3c-.456-.294-.576-.64-.351-1.02s.61-.453,1.091-.172a1.7,1.7,0,0,0,2.234-.267q1.732-1.7,3.437-3.429a1.746,1.746,0,1,0-2.468-2.467c-.308.29-.6.6-.913.88a.665.665,0,0,1-1.007.011.652.652,0,0,1,.032-1c.378-.385.762-.765,1.17-1.117A3.13,3.13,0,0,1,1022.011,538.941Z" transform="translate(-991.456 -515.146)"/><path class="a" d="M1073.811,460.394c-1.341,0-2.682,0-4.023,0-.575,0-.859-.237-.858-.7s.294-.7.86-.7q4.045,0,8.089,0c.533,0,.83.245.843.677.014.449-.3.719-.845.721C1076.522,460.4,1075.167,460.394,1073.811,460.394Z" transform="translate(-1039.536 -442.194)"/><path class="a" d="M893.716,460.423a.7.7,0,1,1,.715-.679A.7.7,0,0,1,893.716,460.423Z" transform="translate(-879.034 -442.227)"/><path class="a" d="M925.694,459a.7.7,0,1,1-.679.7A.7.7,0,0,1,925.694,459Z" transform="translate(-908.213 -442.203)"/><path class="a" d="M958.432,459.742a.7.7,0,1,1-.681-.711A.706.706,0,0,1,958.432,459.742Z" transform="translate(-937.435 -442.228)"/><path class="a" d="M945.791,298.991c1.34,0,2.68,0,4.02,0,.559,0,.858.255.853.707s-.3.691-.868.691q-4.042,0-8.085,0c-.542,0-.835-.235-.854-.664-.02-.459.276-.731.825-.733C943.052,298.988,944.422,298.991,945.791,298.991Z" transform="translate(-922.669 -296.189)"/><path class="a" d="M766.432,299.714a.7.7,0,1,1-.71-.682A.706.706,0,0,1,766.432,299.714Z" transform="translate(-762.234 -296.227)"/><path class="a" d="M798.435,299.716a.7.7,0,1,1-1.395.006.7.7,0,0,1,1.395-.006Z" transform="translate(-791.435 -296.229)"/><path class="a" d="M830.425,299.755a.7.7,0,1,1-.661-.731A.709.709,0,0,1,830.425,299.755Z" transform="translate(-820.628 -296.22)"/></svg>