<svg id="Icon_Theme" data-name="Icon Theme" xmlns="http://www.w3.org/2000/svg" width="24" height="24" viewBox="0 0 24 24">
  <rect id="Rectangle_2503" data-name="Rectangle 2503" width="24" height="24" fill="none"/>
  <path id="Path_306" data-name="Path 306" d="M7.5,2A2.392,2.392,0,0,1,9.689,4.285L17.2,11.91,10.313,18.9a2.63,2.63,0,0,1-3.758,0L2.8,15.088a2.725,2.725,0,0,1,0-3.813L5.282,8.754V4.662A2.467,2.467,0,0,1,7.5,2Zm.443,2.658v1.4l-.886.9V4.662A.493.493,0,0,1,7.5,4.13.493.493,0,0,1,7.939,4.662Zm0,5.316V8.6L4.051,12.545a.908.908,0,0,0,0,1.271L7.808,17.63a.877.877,0,0,0,1.253,0L14.7,11.91,9.711,6.85V9.977q0,.058,0,.115H7.929A.636.636,0,0,0,7.939,9.977Z" transform="translate(2.243 1)" fill="#4187f7" fill-rule="evenodd"/>
  <path id="Path_307" data-name="Path 307" d="M16.859,16.875a3,3,0,1,0,4.243,0L18.98,14.754Z" transform="translate(0.283 -0.992)" fill="#4187f7"/>
</svg>
