<?xml version="1.0" encoding="utf-8"?>
<!-- Generator: Adobe Illustrator 25.2.0, SVG Export Plug-In . SVG Version: 6.00 Build 0)  -->
<svg version="1.1" id="Icon_User" xmlns="http://www.w3.org/2000/svg" xmlns:xlink="http://www.w3.org/1999/xlink" x="0px" y="0px"
	 viewBox="0 0 24 24" style="enable-background:new 0 0 24 24;" xml:space="preserve">
<style type="text/css">
	.st0{fill:none;}
	.st1{fill:#4187F7;}
</style>
<rect id="Rectangle_2507" class="st0" width="24" height="24"/>
<g>
	<path class="st1" d="M14.9,13.7C14.9,13.7,14.9,13.7,14.9,13.7H9.1c0,0,0,0,0,0c-1.9,0-3.4,1.5-3.4,3.4v1.4c0,0.3,0.2,0.5,0.5,0.5
		s0.5-0.2,0.5-0.5v-1.4c0-1.3,1.1-2.4,2.4-2.4c0,0,0,0,0,0h5.8c0,0,0,0,0,0c1.3,0,2.4,1.1,2.4,2.4v1.4c0,0.3,0.2,0.5,0.5,0.5
		s0.5-0.2,0.5-0.5v-1.4C18.3,15.2,16.8,13.7,14.9,13.7z"/>
	<path class="st1" d="M12,11.8C12,11.8,12,11.8,12,11.8c0.9,0,1.8-0.4,2.4-1c0.6-0.6,1-1.5,1-2.4l-0.5,0l0.5,0c0-0.9-0.4-1.8-1-2.4
		c-0.6-0.6-1.5-1-2.4-1c0,0,0,0,0,0c-1.9,0-3.4,1.5-3.4,3.4C8.6,10.3,10.1,11.8,12,11.8z M12,6C12,6,12,6,12,6
		c0.6,0,1.2,0.2,1.7,0.7c0.5,0.5,0.7,1.1,0.7,1.7c0,0.6-0.2,1.2-0.7,1.7s-1.1,0.7-1.7,0.7c0,0,0,0,0,0c-1.3,0-2.4-1.1-2.4-2.4
		C9.6,7.1,10.7,6,12,6z"/>
</g>
</svg>
