<svg xmlns="http://www.w3.org/2000/svg" xmlns:xlink="http://www.w3.org/1999/xlink" width="154.975" height="184.842" viewBox="0 0 154.975 184.842"><defs><style>.a{fill:#f8a63b;}.b,.c,.f,.m{fill:none;}.c{stroke:#fcb83d;}.c,.f,.m{stroke-miterlimit:10;}.c,.f{stroke-width:4px;}.d{fill:#fcb83d;}.e{fill:#ccecf8;opacity:0.36;mix-blend-mode:multiply;isolation:isolate;}.f{stroke:#faa83b;}.g{clip-path:url(#a);}.h{fill:#fff;}.i{fill:#513114;}.j{fill:#f16e24;}.k{fill:#3f5765;}.l{fill:#2b3a42;}.m{stroke:#2b3a42;stroke-width:3px;}.n{fill:#fcb73d;}.o{fill:#f9a83b;}.p{clip-path:url(#b);}.q{fill:#ee5225;}</style><clipPath id="a"><path class="a" d="M1505.666,291.588a54.938,54.938,0,0,1-1.414,9.057c-.914,4.637-.552,8.992-2.453,13.481-3.739,8.829-11.636,14.834-18.872,20.891a67.174,67.174,0,0,1-7.843,6.023c-9.977,6.1-24,7.208-35.364,7.208a29.724,29.724,0,0,1-9.6-1.712c-3.875-1.185-8.319-.079-12.3-.348-8.41-.57-15.907-5.561-22.551-10.939-7.057-5.713-13.7-12.108-18.823-19.72-3.341-4.963-6.062-10.6-6.477-16.633a32.817,32.817,0,0,1,.558-7.992,89,89,0,0,1,6.075-18.8A58.727,58.727,0,0,1,1383,259.984c3.148-4.283,7.412-6.338,11.328-9.51a67.414,67.414,0,0,1,13.272-8.388,75.659,75.659,0,0,1,64.114-.063c12.331,5.884,23.241,15.628,29.232,28.414a50.019,50.019,0,0,1,4.722,19.495C1505.685,290.5,1505.684,291.049,1505.666,291.588Z" transform="translate(-1369.912 -234.928)"/></clipPath><clipPath id="b"><path class="b" d="M1378.448,162.632c8.813-13.794,25.075-21.363,41.274-23.714s32.664-.2,48.949,1.452,33,2.779,48.795-1.527c-5.772,20.363-8.006,45.326-13.2,65.843-5.605-9.669-11.523-20.265-19.508-21.2-26.1-3.072-46.574-9.325-72.734-6.836-8.414.8-19.966.574-23.969,8.018-2.2,4.086-5.287,9.461-6.666,13.895-5.8,18.651-10.752.406-10.575-7.751C1371.024,180.958,1373.083,171.03,1378.448,162.632Z" transform="translate(-1370.806 -137.88)"/></clipPath></defs><g transform="translate(0)"><g transform="translate(128.336 96.294)"><path class="c" d="M1881.034,521.52s-.261,30.468-1.827,46.5" transform="translate(-1871.621 -521.52)"/><path class="d" d="M1861.775,703.163a19.008,19.008,0,0,1,3.926,1.336,6.612,6.612,0,0,1,2.313,1.6,2.91,2.91,0,0,1,.683,2.633,3.054,3.054,0,0,1-2.939,1.91,8.948,8.948,0,0,1-3.592-.975,3.193,3.193,0,0,1-1.27,3.668,4.875,4.875,0,0,1-4.033.5,1.917,1.917,0,0,1-1.031-.583,2.162,2.162,0,0,1-.346-1.14,31.673,31.673,0,0,1-.158-3.536c-1.462,1.085-3.382,2.214-4.976,1.334a3.3,3.3,0,0,1-1.142-3.966,9.624,9.624,0,0,1,2.718-3.522l2.8-2.645C1858.206,696.487,1858.36,702.4,1861.775,703.163Z" transform="translate(-1848.984 -654.295)"/></g><path class="e" d="M1409.29,826.958a39.7,39.7,0,0,0,18.472.7c8.628-1.513,17.325-6.564,26.092-5.419,10.907,1.425,21.563,4.491,32.621,4.511a9.675,9.675,0,0,0,3.244-.393,5.835,5.835,0,0,0,3.71-4.911,5.689,5.689,0,0,0-2.874-5.467,8.688,8.688,0,0,0-3.407-.729c-10.371-.669-21.385,1.424-31.879,1.862-5.135.214-10.185,1.15-14.974-1.205a30.2,30.2,0,0,0-13.272-2.876,172.765,172.765,0,0,0-18.3,1.129,16.749,16.749,0,0,0-5.167,1.378c-2.178,1-2.814.919-5.416,1.112-14.155,1.05-29.257-.692-43.362-2.711-1.949-.279-4-.573-5.826.216a6.141,6.141,0,0,0-3.455,5.9,6.006,6.006,0,0,0,4.174,5.345,10.856,10.856,0,0,0,4.755-.174,153.131,153.131,0,0,1,22.5-2.32c6.49-.2,13.128-2.007,19.61-.875,3.9.68,7.433,3,11.122,4.369Q1408.471,826.706,1409.29,826.958Z" transform="translate(-1343.532 -643.571)"/><line class="f" y2="35.874" transform="translate(83.438 136.768)"/><line class="f" y2="35.874" transform="translate(68.477 136.768)"/><g transform="translate(57.983 170.61)"><path class="a" d="M1569.782,821.6a7.844,7.844,0,0,1,5.551-1.156,1.559,1.559,0,0,0,1.984-1.487l3.74-1.349c.34,1.009,1.765,1.9,2.19,2.912.673,1.6-1.123,2.52-2.376,2.967a5.593,5.593,0,0,1-1.439.346,7.05,7.05,0,0,1-1.5-.276,6.937,6.937,0,0,0-2,.043c-2.23.357-4.532,1.391-6.66.106a1.157,1.157,0,0,1-.543-.559.871.871,0,0,1,.142-.757A3.588,3.588,0,0,1,1569.782,821.6Z" transform="translate(-1568.693 -817.603)"/></g><g transform="translate(79.263 170.599)"><path class="a" d="M1667.085,821.563a8.51,8.51,0,0,0-5.551-1.156,1.83,1.83,0,0,1-2.016-1.487l-3.74-1.36c-.34,1.36-1.733,1.911-2.158,2.923-.673,1.6,1.123,2.52,2.376,2.967a5.59,5.59,0,0,0,1.439.346,7.051,7.051,0,0,0,1.5-.276,6.932,6.932,0,0,1,2,.043c2.23.357,4.532,1.391,6.66.106a1.157,1.157,0,0,0,.543-.559.872.872,0,0,0-.142-.756A3.584,3.584,0,0,0,1667.085,821.563Z" transform="translate(-1653.474 -817.56)"/></g><path class="c" d="M1386.629,521.52s.261,30.468,1.828,46.5" transform="translate(-1374.344 -425.227)"/><path class="d" d="M1352.239,703.163a19.012,19.012,0,0,0-3.926,1.336,6.613,6.613,0,0,0-2.313,1.6,2.911,2.911,0,0,0-.683,2.633,3.053,3.053,0,0,0,2.939,1.91,8.947,8.947,0,0,0,3.592-.975,3.194,3.194,0,0,0,1.27,3.668,4.875,4.875,0,0,0,4.033.5,1.92,1.92,0,0,0,1.032-.583,2.162,2.162,0,0,0,.346-1.14,31.7,31.7,0,0,0,.158-3.536c1.462,1.085,3.382,2.214,4.976,1.334a3.3,3.3,0,0,0,1.142-3.966,9.618,9.618,0,0,0-2.717-3.522l-2.8-2.645C1355.809,696.487,1355.655,702.4,1352.239,703.163Z" transform="translate(-1343.332 -558.001)"/><g transform="translate(8.089 24.359)"><path class="a" d="M1505.666,291.588a54.938,54.938,0,0,1-1.414,9.057c-.914,4.637-.552,8.992-2.453,13.481-3.739,8.829-11.636,14.834-18.872,20.891a67.174,67.174,0,0,1-7.843,6.023c-9.977,6.1-24,7.208-35.364,7.208a29.724,29.724,0,0,1-9.6-1.712c-3.875-1.185-8.319-.079-12.3-.348-8.41-.57-15.907-5.561-22.551-10.939-7.057-5.713-13.7-12.108-18.823-19.72-3.341-4.963-6.062-10.6-6.477-16.633a32.817,32.817,0,0,1,.558-7.992,89,89,0,0,1,6.075-18.8A58.727,58.727,0,0,1,1383,259.984c3.148-4.283,7.412-6.338,11.328-9.51a67.414,67.414,0,0,1,13.272-8.388,75.659,75.659,0,0,1,64.114-.063c12.331,5.884,23.241,15.628,29.232,28.414a50.019,50.019,0,0,1,4.722,19.495C1505.685,290.5,1505.684,291.049,1505.666,291.588Z" transform="translate(-1369.912 -234.928)"/><g class="g"><path class="d" d="M1466.736,251.46a44.377,44.377,0,0,1-2.687,16.917c-1.862,4.838-4.727,9.177-7.568,13.472-2.865,4.33-5.77,8.707-9.558,12.192-6.154,5.66-14.285,8.589-22.44,9.7s-16.427.547-24.634-.024c-8.435-.587-17.683-.144-25.973-1.806-5.855-1.174-13.188-6.036-17.84-9.885-3.279-2.713-6.295-7.108-8.792-10.616a51.167,51.167,0,0,1-9.65-29.519c0-31.292,29.537-56.66,65.973-56.66a73.2,73.2,0,0,1,39.319,11.158c8.375,5.349,14.668,14.083,19.064,23.19a49.954,49.954,0,0,1,4.317,15.562A62.139,62.139,0,0,1,1466.736,251.46Z" transform="translate(-1345.705 -205.197)"/></g></g><path class="h" d="M1520.791,374.726a7.954,7.954,0,0,0-.484,3.849,6.508,6.508,0,0,0,.985,3.865c1.2,1.51,3.4,1.64,5.333,1.643l2.771,0a7.418,7.418,0,0,0,3.121-.446c2.055-.94,2.786-3.442,3.246-5.655a7.384,7.384,0,0,0,.169-3.293C1533.979,366.981,1523.659,368.881,1520.791,374.726Z" transform="translate(-1474.448 -311.438)"/><path class="h" d="M1701.024,363.855A12.158,12.158,0,0,0,1699.3,375.4a6.951,6.951,0,0,0,2.394,3.334,8.558,8.558,0,0,0,4.956,1.121c3.435-.019,7.023-.631,9.749-2.721s4.293-5.965,2.9-9.1a12.32,12.32,0,0,0-1.911-2.783c-2.431-2.923-3.851-6.093-7.819-5.975A11.92,11.92,0,0,0,1701.024,363.855Z" transform="translate(-1607.975 -303.698)"/><path class="i" d="M1729.14,385.113a2.807,2.807,0,0,0,3.441,2.744c1.875-.6,2-2.817.928-4.219C1732,381.657,1729.276,382.6,1729.14,385.113Z" transform="translate(-1630.882 -321.154)"/><path class="i" d="M1543.7,388.18a2.239,2.239,0,0,0,2.745,2.189c1.5-.479,1.594-2.247.74-3.365A1.906,1.906,0,0,0,1543.7,388.18Z" transform="translate(-1491.984 -323.836)"/><path class="j" d="M1378.448,162.632c8.813-13.794,25.075-21.363,41.274-23.714s32.664-.2,48.949,1.452,33,2.779,48.795-1.527c-5.772,20.363-8.006,45.326-13.2,65.843-5.605-9.669-11.523-20.265-19.508-21.2-26.1-3.072-46.574-9.325-72.734-6.836-8.414.8-19.966.574-23.969,8.018-2.2,4.086-5.287,9.461-6.666,13.895-5.8,18.651-10.752.406-10.575-7.751C1371.024,180.958,1373.083,171.03,1378.448,162.632Z" transform="translate(-1362.492 -137.88)"/><g transform="translate(53.587 123.161)"><path class="k" d="M1649.406,637.749c4.388-2.388,10.184-5.751,14.572-8.139,1.064-.579,2.914-1.329,3.722.031a4.035,4.035,0,0,1,.4,1.948,58.931,58.931,0,0,1-.081,9.144c-.3,2.428.439,5.054-.623,7.382a1.678,1.678,0,0,1-.583.764,1.973,1.973,0,0,1-1.218.159,52.491,52.491,0,0,1-12.135-1.984c-1.659-.547-4.027-1.057-4.406-2.918a12.262,12.262,0,0,1-.215-3.307C1648.875,640.342,1648.959,637.992,1649.406,637.749Z" transform="translate(-1624.306 -628.796)"/><path class="k" d="M1556.446,635.258c-1.366-.649-3.286-1.362-4.389.127-1.649,2.228-.5,6.23-.3,8.745.25,3.125.246,9.889,4.7,10.229,1.875.143,3.792-1.028,5.52-1.622l6.547-2.252a4.552,4.552,0,0,0,1.52-.747c1.228-1.05.891-4.337.394-5.736-.611-1.723-2.237-2.808-3.654-3.833C1563.911,638.092,1559.7,636.7,1556.446,635.258Z" transform="translate(-1551.181 -633.014)"/><path class="l" d="M1658.528,630.471c1.837-1.13,4.109-2.231,6.322-1.82a1.66,1.66,0,0,1,.878.379,1.3,1.3,0,0,1,.129,1.513,3.28,3.28,0,0,1-1.167,1.112,41.9,41.9,0,0,1-7.153,3.6,37.993,37.993,0,0,1-7.055,2.552c-.51.092-1.43.274-1.385-.53.04-.723,1.084-1.076,1.589-1.4.983-.628,1.942-1.3,2.908-1.951C1655.249,632.811,1656.826,631.519,1658.528,630.471Z" transform="translate(-1624.518 -628.563)"/><path class="l" d="M1573.556,641.818q1.116.4,2.231.8c.688.248,2.122,1.14,2.874.891,1.449-.481-1.394-3.107-1.795-3.436a15.283,15.283,0,0,0-4.619-2.529c-1.313-.466-9.05-2.992-9.42-.652a1.372,1.372,0,0,0,.559,1.226,4.058,4.058,0,0,0,1.268.6q3.722,1.267,7.429,2.577Z" transform="translate(-1559.895 -634.067)"/><rect class="l" width="8.86" height="8.86" rx="4.43" transform="translate(17.967 8.342)"/></g><g transform="translate(55.958 85.197)"><path class="i" d="M1565.977,497.291a11.638,11.638,0,0,0,1.617,1.96c3.723,3.617,8.97,5.366,13.766,7.016a27.364,27.364,0,0,0,9.9,1.775c3.415-.135,7.787-1.318,9.49-4.516a11.557,11.557,0,0,0,1.048-6.236Z" transform="translate(-1564.634 -492.276)"/><path class="h" d="M1597.391,478.582c-3.175-.128-36.613-2.364-36.752-.593a7.136,7.136,0,0,0,1.329,4.336h35.821C1597.712,481.067,1597.54,479.808,1597.391,478.582Z" transform="translate(-1560.625 -477.309)"/></g><g transform="translate(28.76 51.61)"><path class="m" d="M1702.593,378.808h-2.765a18.005,18.005,0,0,1-18.005-18.006V349.491a2.7,2.7,0,0,1,2.445-2.684l35.344-3.3a.9.9,0,0,1,.988.9v16.4A18.006,18.006,0,0,1,1702.593,378.808Z" transform="translate(-1624.204 -343.499)"/><path class="m" d="M1473.039,378.808h-2.765a18.006,18.006,0,0,1-18.006-18.006V344.4a.9.9,0,0,1,.988-.9l35.343,3.3a2.7,2.7,0,0,1,2.445,2.684V360.8A18.006,18.006,0,0,1,1473.039,378.808Z" transform="translate(-1452.268 -343.499)"/><line class="m" x2="18.842" transform="translate(38.75 12.307)"/></g><g transform="translate(0 64.584)"><path class="n" d="M1341.951,395.735c-3.487,2.314-4.667,7.829-4.152,12.592.337,3.11,1.712,6.619,4.287,7.039,1.349.22,2.665-.488,3.976-.93s2.895-.543,3.857.619l.238.787c-.374-1.235.31-5.853.177-7.607-.156-2.072.784-6.424.306-8.08C1349.718,396.961,1344.7,393.913,1341.951,395.735Z" transform="translate(-1337.684 -395.187)"/><path class="o" d="M1899.714,395.735c3.487,2.314,4.667,7.829,4.152,12.592-.337,3.11-1.712,6.619-4.287,7.039-1.349.22-2.665-.488-3.976-.93s-2.895-.543-3.856.619l-.238.787c.374-1.235-.31-5.853-.177-7.607.157-2.072-.784-6.424-.306-8.08C1891.948,396.961,1896.97,393.913,1899.714,395.735Z" transform="translate(-1752.035 -395.187)"/></g><g transform="translate(8.313)"><g class="p"><path class="q" d="M1817.431,155.874c1.285-5.189,3.963-9.924,6.909-14.384,3.943-5.968,8.635-12.282,8.082-19.413a366.517,366.517,0,0,0,39.891,1.042,383.841,383.841,0,0,0-19.227,50.171c-2.145,7.039-4.116,14.206-7.641,20.665-1.283,2.352-3.515,4.916-6.107,4.239a6.142,6.142,0,0,1-2.832-2.09,106.084,106.084,0,0,1-9.558-13.289,26.093,26.093,0,0,0-4.505-5.714,19.127,19.127,0,0,1-2.714-2.449c-.911-1.169-.627-2.328-.968-3.61-.44-1.65-1.343-3.123-1.689-4.849A23.744,23.744,0,0,1,1817.431,155.874Z" transform="translate(-1704.753 -126.044)"/></g></g></g></svg>