<svg xmlns="http://www.w3.org/2000/svg" xmlns:xlink="http://www.w3.org/1999/xlink" width="185.481" height="184.842" viewBox="0 0 185.481 184.842"><defs><style>.a{fill:#f8a63b;}.b,.d,.e,.m,.r{fill:none;}.c{fill:#ccecf8;opacity:0.36;mix-blend-mode:multiply;isolation:isolate;}.d{stroke:#faa83b;}.d,.e,.m,.r{stroke-miterlimit:10;}.d,.e,.r{stroke-width:4px;}.e{stroke:#fcb83d;}.f{fill:#fcb83d;}.g{clip-path:url(#a);}.h{fill:#fff;}.i{fill:#513114;}.j{fill:#f16e24;}.k{fill:#3f5765;}.l{fill:#2b3a42;}.m{stroke:#2b3a42;stroke-width:3px;}.n{fill:#fcb73d;}.o{fill:#f9a83b;}.p{clip-path:url(#b);}.q{fill:#ee5225;}.r{stroke:#f8a63b;}</style><clipPath id="a"><path class="a" d="M2720.032,1435.495a54.983,54.983,0,0,1-1.414,9.057c-.914,4.637-.552,8.991-2.453,13.481-3.739,8.829-11.636,14.834-18.872,20.891a67.164,67.164,0,0,1-7.843,6.023c-9.977,6.1-24,7.207-35.364,7.207a29.71,29.71,0,0,1-9.6-1.712c-3.875-1.185-8.319-.078-12.3-.348-8.41-.57-15.907-5.561-22.55-10.939-7.057-5.713-13.7-12.107-18.823-19.719-3.342-4.964-6.062-10.6-6.477-16.633a32.8,32.8,0,0,1,.558-7.992,89.021,89.021,0,0,1,6.075-18.8,58.726,58.726,0,0,1,6.395-12.124c3.147-4.283,7.412-6.338,11.328-9.51a67.408,67.408,0,0,1,13.272-8.388,75.661,75.661,0,0,1,64.115-.063c12.331,5.885,23.241,15.628,29.232,28.414a50.02,50.02,0,0,1,4.722,19.495C2720.051,1434.406,2720.05,1434.956,2720.032,1435.495Z" transform="translate(-2584.278 -1378.835)"/></clipPath><clipPath id="b"><path class="b" d="M2592.813,1306.539c8.813-13.794,25.075-21.363,41.274-23.714s32.664-.2,48.949,1.452,33,2.779,48.795-1.527c-5.772,20.364-8.006,45.326-13.2,65.843-5.605-9.669-11.523-20.265-19.508-21.2-26.1-3.072-46.574-9.326-72.734-6.836-8.414.8-19.966.574-23.969,8.018-2.2,4.086-5.287,9.461-6.665,13.895-5.8,18.651-10.752.406-10.576-7.751C2585.389,1324.865,2587.448,1314.936,2592.813,1306.539Z" transform="translate(-2585.17 -1281.786)"/></clipPath></defs><g transform="translate(0 0)"><path class="c" d="M2623.656,1970.864a39.7,39.7,0,0,0,18.471.7c8.628-1.513,17.325-6.564,26.092-5.419,10.907,1.425,21.563,4.491,32.621,4.511a9.676,9.676,0,0,0,3.244-.392,5.835,5.835,0,0,0,3.71-4.911,5.689,5.689,0,0,0-2.874-5.466,8.682,8.682,0,0,0-3.407-.729c-10.371-.669-21.385,1.424-31.879,1.861-5.135.214-10.185,1.149-14.974-1.205a30.186,30.186,0,0,0-13.272-2.876,172.75,172.75,0,0,0-18.3,1.129,16.743,16.743,0,0,0-5.167,1.378c-2.178.995-2.814.919-5.416,1.112-14.156,1.051-29.257-.692-43.362-2.711-1.949-.279-4-.573-5.826.216a6.14,6.14,0,0,0-3.456,5.9,6.007,6.007,0,0,0,4.174,5.345,10.844,10.844,0,0,0,4.755-.174,153.2,153.2,0,0,1,22.5-2.32c6.49-.2,13.128-2.007,19.61-.875,3.9.68,7.433,3,11.122,4.369Q2622.836,1970.613,2623.656,1970.864Z" transform="translate(-2527.39 -1787.478)"/><line class="d" y2="35.874" transform="translate(113.944 136.768)"/><line class="d" y2="35.874" transform="translate(98.983 136.768)"/><g transform="translate(88.489 170.61)"><path class="a" d="M2784.148,1965.5a7.843,7.843,0,0,1,5.55-1.156,1.559,1.559,0,0,0,1.984-1.487l3.74-1.349c.34,1.01,1.765,1.9,2.19,2.912.673,1.6-1.123,2.52-2.376,2.967a5.615,5.615,0,0,1-1.439.346,7.089,7.089,0,0,1-1.5-.276,6.947,6.947,0,0,0-2,.043c-2.23.357-4.531,1.391-6.66.106a1.157,1.157,0,0,1-.543-.559.874.874,0,0,1,.142-.757A3.587,3.587,0,0,1,2784.148,1965.5Z" transform="translate(-2783.058 -1961.509)"/></g><g transform="translate(109.769 170.6)"><path class="a" d="M2881.45,1965.47a8.508,8.508,0,0,0-5.55-1.156,1.83,1.83,0,0,1-2.016-1.487l-3.74-1.36c-.34,1.36-1.733,1.911-2.158,2.923-.673,1.6,1.123,2.52,2.375,2.967a5.6,5.6,0,0,0,1.439.346,7.068,7.068,0,0,0,1.5-.276,6.949,6.949,0,0,1,2,.043c2.23.357,4.532,1.391,6.661.106a1.157,1.157,0,0,0,.543-.559.873.873,0,0,0-.142-.757A3.591,3.591,0,0,0,2881.45,1965.47Z" transform="translate(-2867.839 -1961.467)"/></g><path class="e" d="M2506.7,1574.454s-20.85-22.218-32.873-32.94" transform="translate(-2462.954 -1476.322)"/><path class="f" d="M2443.6,1493.354a19.019,19.019,0,0,0,1.979-3.644,6.619,6.619,0,0,0,.614-2.746,2.91,2.91,0,0,0-1.283-2.4,3.053,3.053,0,0,0-3.455.589,8.951,8.951,0,0,0-1.98,3.152,3.194,3.194,0,0,0-3.421-1.835,4.875,4.875,0,0,0-3.3,2.367,1.921,1.921,0,0,0-.363,1.128,2.161,2.161,0,0,0,.519,1.072,31.662,31.662,0,0,0,2.281,2.707c-1.811.194-3.987.666-4.562,2.394a3.3,3.3,0,0,0,1.849,3.689,9.617,9.617,0,0,0,4.385.746l3.851.047C2445.507,1500.681,2441.608,1496.229,2443.6,1493.354Z" transform="translate(-2430.51 -1433.431)"/><g transform="translate(38.596 24.359)"><path class="a" d="M2720.032,1435.495a54.983,54.983,0,0,1-1.414,9.057c-.914,4.637-.552,8.991-2.453,13.481-3.739,8.829-11.636,14.834-18.872,20.891a67.164,67.164,0,0,1-7.843,6.023c-9.977,6.1-24,7.207-35.364,7.207a29.71,29.71,0,0,1-9.6-1.712c-3.875-1.185-8.319-.078-12.3-.348-8.41-.57-15.907-5.561-22.55-10.939-7.057-5.713-13.7-12.107-18.823-19.719-3.342-4.964-6.062-10.6-6.477-16.633a32.8,32.8,0,0,1,.558-7.992,89.021,89.021,0,0,1,6.075-18.8,58.726,58.726,0,0,1,6.395-12.124c3.147-4.283,7.412-6.338,11.328-9.51a67.408,67.408,0,0,1,13.272-8.388,75.661,75.661,0,0,1,64.115-.063c12.331,5.885,23.241,15.628,29.232,28.414a50.02,50.02,0,0,1,4.722,19.495C2720.051,1434.406,2720.05,1434.956,2720.032,1435.495Z" transform="translate(-2584.278 -1378.835)"/><g class="g"><path class="f" d="M2681.1,1395.367a44.379,44.379,0,0,1-2.687,16.917c-1.862,4.837-4.727,9.177-7.569,13.472-2.865,4.33-5.77,8.707-9.558,12.192-6.154,5.66-14.284,8.589-22.44,9.7s-16.427.546-24.634-.024c-8.435-.587-17.682-.144-25.973-1.806-5.855-1.174-13.188-6.036-17.84-9.885-3.279-2.713-6.295-7.108-8.792-10.616a51.168,51.168,0,0,1-9.65-29.519c0-31.292,29.537-56.66,65.973-56.66a73.2,73.2,0,0,1,39.319,11.158c8.375,5.349,14.668,14.083,19.064,23.19a49.947,49.947,0,0,1,4.317,15.563A62.067,62.067,0,0,1,2681.1,1395.367Z" transform="translate(-2560.07 -1349.104)"/></g></g><path class="h" d="M2735.157,1555.409a1.832,1.832,0,0,0-.483,1.722,1.889,1.889,0,0,0,.986,1.73c1.2.676,3.4.734,5.332.735l2.771,0a16.031,16.031,0,0,0,3.121-.2,4.124,4.124,0,0,0,3.246-2.53,1.574,1.574,0,0,0,.169-1.473C2748.345,1551.943,2738.025,1552.793,2735.157,1555.409Z" transform="translate(-2658.308 -1485.012)"/><path class="h" d="M2915.39,1550.545c-2.489,1.437-3.165,3.464-1.721,5.164a4.967,4.967,0,0,0,2.394,1.492,17.682,17.682,0,0,0,4.957.5,32.052,32.052,0,0,0,9.749-1.218c2.726-.935,4.293-2.669,2.9-4.073a8.465,8.465,0,0,0-1.911-1.245c-2.431-1.308-3.851-2.726-7.818-2.673A19.086,19.086,0,0,0,2915.39,1550.545Z" transform="translate(-2791.834 -1481.549)"/><path class="i" d="M2943.505,1564.927a2.807,2.807,0,0,0,3.441,2.744c1.875-.6,2-2.818.928-4.219C2946.361,1561.471,2943.641,1562.416,2943.505,1564.927Z" transform="translate(-2814.741 -1491.956)"/><path class="i" d="M2758.061,1565.609a2.239,2.239,0,0,0,2.745,2.189c1.5-.479,1.594-2.247.741-3.365A1.906,1.906,0,0,0,2758.061,1565.609Z" transform="translate(-2675.844 -1492.852)"/><path class="j" d="M2592.813,1306.539c8.813-13.794,25.075-21.363,41.274-23.714s32.664-.2,48.949,1.452,33,2.779,48.795-1.527c-5.772,20.364-8.006,45.326-13.2,65.843-5.605-9.669-11.523-20.265-19.508-21.2-26.1-3.072-46.574-9.326-72.734-6.836-8.414.8-19.966.574-23.969,8.018-2.2,4.086-5.287,9.461-6.665,13.895-5.8,18.651-10.752.406-10.576-7.751C2585.389,1324.865,2587.448,1314.936,2592.813,1306.539Z" transform="translate(-2546.351 -1281.786)"/><g transform="translate(84.094 123.161)"><path class="k" d="M2863.771,1781.655c4.388-2.389,10.184-5.751,14.572-8.14,1.064-.579,2.914-1.329,3.722.031a4.034,4.034,0,0,1,.4,1.948,58.869,58.869,0,0,1-.082,9.144c-.3,2.428.439,5.054-.623,7.382a1.684,1.684,0,0,1-.583.764,1.975,1.975,0,0,1-1.218.159,52.509,52.509,0,0,1-12.135-1.984c-1.659-.547-4.027-1.058-4.406-2.918a12.282,12.282,0,0,1-.215-3.307C2863.24,1784.248,2863.325,1781.9,2863.771,1781.655Z" transform="translate(-2838.671 -1772.703)"/><path class="k" d="M2770.812,1779.164c-1.366-.649-3.287-1.363-4.389.127-1.649,2.228-.5,6.23-.3,8.745.25,3.125.246,9.889,4.7,10.229,1.875.143,3.792-1.028,5.52-1.622l6.546-2.252a4.539,4.539,0,0,0,1.52-.747c1.228-1.05.891-4.337.394-5.736-.612-1.723-2.237-2.808-3.654-3.833C2778.276,1782,2774.062,1780.609,2770.812,1779.164Z" transform="translate(-2765.546 -1776.92)"/><path class="l" d="M2872.894,1774.377c1.837-1.13,4.109-2.231,6.322-1.82a1.663,1.663,0,0,1,.877.379,1.3,1.3,0,0,1,.129,1.513,3.272,3.272,0,0,1-1.168,1.112,41.9,41.9,0,0,1-7.153,3.6,38.017,38.017,0,0,1-7.055,2.552c-.51.092-1.43.274-1.385-.53.04-.723,1.085-1.076,1.589-1.4.983-.628,1.942-1.3,2.908-1.95C2869.614,1776.717,2871.191,1775.425,2872.894,1774.377Z" transform="translate(-2838.884 -1772.469)"/><path class="l" d="M2787.921,1785.725q1.117.4,2.231.8c.688.248,2.122,1.14,2.874.891,1.449-.482-1.394-3.107-1.794-3.436a15.3,15.3,0,0,0-4.619-2.529c-1.313-.465-9.05-2.992-9.421-.652a1.372,1.372,0,0,0,.56,1.226,4.062,4.062,0,0,0,1.268.6q3.722,1.267,7.429,2.577Z" transform="translate(-2774.26 -1777.973)"/><rect class="l" width="8.86" height="8.86" rx="4.43" transform="translate(17.967 8.343)"/></g><g transform="translate(59.267 51.61)"><path class="m" d="M2916.958,1522.714h-2.765a18.006,18.006,0,0,1-18.006-18.005V1493.4a2.7,2.7,0,0,1,2.445-2.684l35.343-3.3a.9.9,0,0,1,.988.9v16.4A18.005,18.005,0,0,1,2916.958,1522.714Z" transform="translate(-2838.569 -1487.405)"/><path class="m" d="M2687.4,1522.714h-2.765a18.005,18.005,0,0,1-18.005-18.005v-16.4a.9.9,0,0,1,.988-.9l35.344,3.3a2.7,2.7,0,0,1,2.445,2.684v11.311A18.005,18.005,0,0,1,2687.4,1522.714Z" transform="translate(-2666.634 -1487.405)"/><line class="m" x2="18.842" transform="translate(38.749 12.307)"/></g><g transform="translate(30.506 64.584)"><path class="n" d="M2556.317,1539.641c-3.487,2.314-4.667,7.829-4.152,12.592.336,3.11,1.712,6.619,4.287,7.04,1.349.22,2.665-.488,3.976-.931s2.895-.543,3.857.62l.238.787c-.373-1.235.31-5.853.178-7.607-.156-2.073.783-6.424.305-8.08C2564.084,1540.867,2559.062,1537.819,2556.317,1539.641Z" transform="translate(-2552.05 -1539.094)"/><path class="o" d="M3114.08,1539.641c3.487,2.314,4.667,7.829,4.152,12.592-.336,3.11-1.712,6.619-4.287,7.04-1.349.22-2.665-.488-3.976-.931s-2.895-.543-3.856.62q-.119.393-.238.787c.373-1.235-.31-5.853-.177-7.607.156-2.073-.784-6.424-.306-8.08C3106.313,1540.867,3111.335,1537.819,3114.08,1539.641Z" transform="translate(-2966.401 -1539.094)"/></g><g transform="translate(38.82)"><g class="p"><path class="q" d="M3031.8,1299.781c1.285-5.189,3.963-9.924,6.909-14.384,3.943-5.968,8.635-12.282,8.082-19.413a366.4,366.4,0,0,0,39.891,1.042,383.859,383.859,0,0,0-19.227,50.171c-2.146,7.039-4.116,14.207-7.641,20.665-1.283,2.352-3.515,4.916-6.107,4.239a6.143,6.143,0,0,1-2.831-2.09,106.089,106.089,0,0,1-9.558-13.289,26.079,26.079,0,0,0-4.5-5.714,19.106,19.106,0,0,1-2.713-2.449c-.911-1.168-.627-2.328-.968-3.609-.44-1.65-1.343-3.124-1.689-4.849A23.746,23.746,0,0,1,3031.8,1299.781Z" transform="translate(-2919.118 -1269.95)"/></g></g><ellipse class="i" cx="13.406" cy="16.098" rx="13.406" ry="16.098" transform="translate(92.498 84.831)"/><g transform="translate(94.536 84.831)"><path class="h" d="M2818.608,1625.324a40.333,40.333,0,0,1,10.668.93c-2.443-3.942-6.353-6.5-10.76-6.5-4.794,0-9,3.024-11.368,7.569A38.92,38.92,0,0,1,2818.608,1625.324Z" transform="translate(-2807.148 -1619.759)"/></g><g transform="translate(112.323 96.728)"><path class="r" d="M2970.206,1686.782s4.279,21.343-6.542,23.224c-5.913,1.027-28.309-12.7-37.616-18.645" transform="translate(-2913.991 -1681.857)"/><path class="a" d="M2886.9,1680.8a19.011,19.011,0,0,1-3.046,2.814,6.622,6.622,0,0,1-2.511,1.27,2.911,2.911,0,0,1-2.64-.654,3.054,3.054,0,0,1-.278-3.494,8.949,8.949,0,0,1,2.569-2.693,3.193,3.193,0,0,1-2.619-2.865,4.875,4.875,0,0,1,1.483-3.784,1.922,1.922,0,0,1,1-.63,2.164,2.164,0,0,1,1.167.24,31.711,31.711,0,0,1,3.184,1.546c-.257-1.8-.334-4.028,1.2-5.01a3.3,3.3,0,0,1,4.031.886,9.619,9.619,0,0,1,1.8,4.067l.992,3.721C2894.471,1680.841,2889.2,1678.156,2886.9,1680.8Z" transform="translate(-2878.013 -1667.159)"/></g></g></svg>