<svg xmlns="http://www.w3.org/2000/svg" xmlns:xlink="http://www.w3.org/1999/xlink" width="125.988" height="165.755" viewBox="0 0 125.988 165.755"><defs><style>.a{fill:#f8a63b;}.b,.d,.e,.m{fill:none;}.c{fill:#ccecf8;opacity:0.36;mix-blend-mode:multiply;isolation:isolate;}.d{stroke:#faa83b;}.d,.e,.m{stroke-miterlimit:10;}.d,.e{stroke-width:5px;}.e{stroke:#fcb83d;}.f{clip-path:url(#a);}.g{fill:#fcb83d;}.h{fill:#fff;}.i{fill:#513114;}.j{fill:#f16e24;}.k{fill:#3f5765;}.l{fill:#2b3a42;}.m{stroke:#2b3a42;stroke-width:4px;}.n{fill:#fcb73d;}.o{fill:#f9a83b;}.p{clip-path:url(#b);}.q{fill:#ee5225;}</style><clipPath id="a"><path class="a" d="M348.254,1453.281a46.186,46.186,0,0,1,.27,7.7c-.019,3.972.971,7.509.114,11.515-1.685,7.88-7.25,14.089-12.261,20.236a56.4,56.4,0,0,1-5.517,6.216c-7.266,6.621-18.665,9.757-28.043,11.559a24.982,24.982,0,0,1-8.2.111c-3.386-.363-6.878,1.255-10.2,1.664-7.032.864-14.011-2.066-20.347-5.45a77.291,77.291,0,0,1-18.664-13.289c-3.545-3.566-6.684-7.783-7.984-12.7a27.567,27.567,0,0,1-.807-6.684,74.8,74.8,0,0,1,2.032-16.477A49.359,49.359,0,0,1,242,1446.66c1.918-4.034,5.112-6.407,7.841-9.646a56.668,56.668,0,0,1,9.623-9.029,63.589,63.589,0,0,1,52.905-10.224c11.111,2.9,21.661,9.211,28.634,18.813a42.039,42.039,0,0,1,6.991,15.34C348.1,1452.379,348.183,1452.834,348.254,1453.281Z" transform="translate(-236.608 -1415.815)"/></clipPath><clipPath id="b"><path class="b" d="M213.167,1313.528c5.085-12.783,17.306-21.61,30.3-26.12s26.927-5.349,40.63-6.568,27.678-2.943,40.029-9c-1.533,17.722.584,38.679-.451,56.437-6.16-7.091-12.725-14.9-19.465-14.406-22.026,1.605-39.919-.307-61.114,5.9-6.818,2-16.388,3.641-18.51,10.421-1.165,3.721-2.862,8.647-3.3,12.525-1.829,16.313-8.809,2.041-9.958-4.719C209.946,1329.831,210.071,1321.31,213.167,1313.528Z" transform="translate(-210.487 -1271.838)"/></clipPath></defs><g transform="translate(-197.592 -1271.838)"><path class="c" d="M252.37,2008.027a33.368,33.368,0,0,0,15.524.592c7.251-1.271,14.561-5.517,21.929-4.554,9.167,1.2,18.122,3.774,27.416,3.791a8.132,8.132,0,0,0,2.727-.33,4.9,4.9,0,0,0,3.118-4.127,4.782,4.782,0,0,0-2.415-4.594,7.3,7.3,0,0,0-2.863-.613c-8.716-.562-17.973,1.2-26.792,1.564-4.315.18-8.56.966-12.584-1.013a25.371,25.371,0,0,0-11.154-2.417,145.193,145.193,0,0,0-15.376.949,14.068,14.068,0,0,0-4.342,1.158c-1.831.836-2.365.772-4.552.934-11.9.883-24.588-.581-36.443-2.278a9.053,9.053,0,0,0-4.9.182,5.161,5.161,0,0,0-2.9,4.96,5.047,5.047,0,0,0,3.508,4.492,9.119,9.119,0,0,0,4-.147,128.753,128.753,0,0,1,18.91-1.95c5.454-.171,11.033-1.687,16.481-.736,3.274.572,6.247,2.519,9.347,3.672Q251.681,2007.815,252.37,2008.027Z" transform="translate(-0.914 -571.657)"/><line class="d" y2="30.15" transform="translate(266.314 1397.189)"/><line class="d" y2="30.15" transform="translate(253.74 1397.189)"/><g transform="translate(244.921 1425.632)"><g transform="translate(0 0)"><path class="a" d="M422.867,2004.248a6.593,6.593,0,0,1,4.665-.972,1.31,1.31,0,0,0,1.667-1.25l3.144-1.134c.286.849,1.483,1.6,1.841,2.448.565,1.345-.944,2.118-2,2.494a4.719,4.719,0,0,1-1.21.291,5.959,5.959,0,0,1-1.257-.232,5.839,5.839,0,0,0-1.685.036c-1.874.3-3.809,1.169-5.6.089a.973.973,0,0,1-.457-.47.734.734,0,0,1,.119-.636A3.023,3.023,0,0,1,422.867,2004.248Z" transform="translate(-421.951 -2000.893)"/></g></g><g transform="translate(262.805 1425.623)"><g transform="translate(0 0)"><path class="a" d="M518.173,2004.215a7.152,7.152,0,0,0-4.665-.972,1.538,1.538,0,0,1-1.694-1.25l-3.144-1.143c-.286,1.143-1.456,1.606-1.814,2.456-.565,1.345.944,2.118,2,2.494a4.7,4.7,0,0,0,1.209.291,5.962,5.962,0,0,0,1.257-.232,5.834,5.834,0,0,1,1.685.036c1.874.3,3.808,1.169,5.6.089a.971.971,0,0,0,.456-.469.734.734,0,0,0-.119-.636A3.022,3.022,0,0,0,518.173,2004.215Z" transform="translate(-506.733 -2000.851)"/></g></g><path class="e" d="M239.6,1752.129s-9.047,12.689-5.21,25.673c0,0,11.551,2.869,27.953-1.639" transform="translate(-28.288 -378.974)"/><g transform="translate(205.822 1302.21)"><path class="a" d="M348.254,1453.281a46.186,46.186,0,0,1,.27,7.7c-.019,3.972.971,7.509.114,11.515-1.685,7.88-7.25,14.089-12.261,20.236a56.4,56.4,0,0,1-5.517,6.216c-7.266,6.621-18.665,9.757-28.043,11.559a24.982,24.982,0,0,1-8.2.111c-3.386-.363-6.878,1.255-10.2,1.664-7.032.864-14.011-2.066-20.347-5.45a77.291,77.291,0,0,1-18.664-13.289c-3.545-3.566-6.684-7.783-7.984-12.7a27.567,27.567,0,0,1-.807-6.684,74.8,74.8,0,0,1,2.032-16.477A49.359,49.359,0,0,1,242,1446.66c1.918-4.034,5.112-6.407,7.841-9.646a56.668,56.668,0,0,1,9.623-9.029,63.589,63.589,0,0,1,52.905-10.224c11.111,2.9,21.661,9.211,28.634,18.813a42.039,42.039,0,0,1,6.991,15.34C348.1,1452.379,348.183,1452.834,348.254,1453.281Z" transform="translate(-236.608 -1415.815)"/><g class="f" transform="translate(0 0)"><path class="g" d="M299.226,1423.375a37.3,37.3,0,0,1,.467,14.388,59.89,59.89,0,0,1-4.109,12.32c-1.677,4.028-3.38,8.1-5.954,11.578-4.181,5.647-10.427,9.355-16.981,11.569s-13.471,3.057-20.335,3.888c-7.055.854-14.617,2.687-21.723,2.63-5.019-.04-11.842-2.889-16.292-5.328-3.137-1.719-6.323-4.868-8.941-7.367a43,43,0,0,1-12.648-22.832c-4.965-25.827,15.388-51.449,45.46-57.23a61.517,61.517,0,0,1,34.221,2.971c7.761,3.085,14.34,9.3,19.413,16.114a41.98,41.98,0,0,1,6.033,12.159A52.2,52.2,0,0,1,299.226,1423.375Z" transform="translate(-201.382 -1392.154)"/></g></g><path class="h" d="M370.575,1576a6.692,6.692,0,0,0,.212,3.253,5.47,5.47,0,0,0,1.427,3.034c1.229,1.056,3.07.814,4.662.51l2.287-.437a6.239,6.239,0,0,0,2.5-.863c1.547-1.1,1.753-3.283,1.782-5.182a6.2,6.2,0,0,0-.383-2.744C380.231,1567.518,372.015,1570.723,370.575,1576Z" transform="translate(-136.39 -235.491)"/><path class="h" d="M547.49,1530.274a10.218,10.218,0,0,0,.411,9.8,5.842,5.842,0,0,0,2.5,2.372,7.194,7.194,0,0,0,4.269.139c2.832-.56,5.7-1.635,7.614-3.793s2.6-5.6.948-7.974a10.359,10.359,0,0,0-2.019-1.993c-2.47-2.027-4.145-4.418-7.4-3.691A10.017,10.017,0,0,0,547.49,1530.274Z" transform="translate(-275.254 -199.758)"/><path class="i" d="M587.443,1534.252a2.359,2.359,0,0,0,3.275,1.719c1.452-.793,1.2-2.642.1-3.629A2.008,2.008,0,0,0,587.443,1534.252Z" transform="translate(-307.591 -205.078)"/><path class="i" d="M405.639,1572.665a1.882,1.882,0,0,0,2.613,1.371,1.751,1.751,0,0,0,.077-2.9A1.6,1.6,0,0,0,405.639,1572.665Z" transform="translate(-164.143 -235.788)"/><path class="j" d="M213.167,1313.528c5.085-12.783,17.306-21.61,30.3-26.12s26.927-5.349,40.63-6.568,27.678-2.943,40.029-9c-1.533,17.722.584,38.679-.451,56.437-6.16-7.091-12.725-14.9-19.465-14.406-22.026,1.605-39.919-.307-61.114,5.9-6.818,2-16.388,3.641-18.51,10.421-1.165,3.721-2.862,8.647-3.3,12.525-1.829,16.313-8.809,2.041-9.958-4.719C209.946,1329.831,210.071,1321.31,213.167,1313.528Z" transform="translate(-10.175)"/><g transform="translate(250.435 1382.149)"><path class="k" d="M548.805,1804.8c3.243-2.667,7.493-6.362,10.735-9.03.787-.647,2.194-1.559,3.077-.565a3.392,3.392,0,0,1,.641,1.544,49.514,49.514,0,0,1,1.384,7.56c.135,2.052,1.164,4.1.657,6.192a1.41,1.41,0,0,1-.36.723,1.658,1.658,0,0,1-.98.324,44.134,44.134,0,0,1-10.33.288c-1.456-.188-3.491-.234-4.1-1.71a10.311,10.311,0,0,1-.7-2.7C548.778,1807.021,548.475,1805.068,548.805,1804.8Z" transform="translate(-527.44 -1794.762)"/><path class="k" d="M452.023,1830.027c-1.23-.319-2.929-.6-3.6.8-1.008,2.1.574,5.222,1.139,7.265.7,2.539,1.772,8.123,5.5,7.7,1.57-.18,2.967-1.45,4.3-2.215l5.046-2.9a3.827,3.827,0,0,0,1.136-.857c.847-1.062.047-3.721-.585-4.8-.778-1.325-2.291-1.963-3.624-2.583C458.633,1831.181,454.935,1830.7,452.023,1830.027Z" transform="translate(-448.092 -1822.382)"/><path class="l" d="M553.835,1798.7c1.337-1.224,3.037-2.493,4.929-2.505a1.4,1.4,0,0,1,.784.174,1.092,1.092,0,0,1,.347,1.228,2.75,2.75,0,0,1-.787,1.1,35.208,35.208,0,0,1-5.332,4.109,31.954,31.954,0,0,1-5.418,3.225c-.406.157-1.137.453-1.227-.217-.082-.6.724-1.061,1.089-1.406.712-.674,1.4-1.378,2.091-2.071C551.5,1801.147,552.6,1799.831,553.835,1798.7Z" transform="translate(-526.234 -1795.889)"/><path class="l" d="M467.668,1832.562q.984.151,1.968.3c.608.1,1.933.6,2.513.279,1.119-.627-1.644-2.343-2.026-2.551a12.856,12.856,0,0,0-4.213-1.354c-1.158-.176-7.944-1.033-7.878.957a1.154,1.154,0,0,0,.656.923,3.419,3.419,0,0,0,1.142.3q3.273.454,6.54.948Z" transform="translate(-455.934 -1821.704)"/><rect class="l" width="7.446" height="7.446" rx="3.723" transform="translate(15.381 10.663) rotate(-10.882)"/></g><g transform="translate(217.951 1318.499)"><g transform="translate(0 0)"><path class="m" d="M545.06,1524.9l-2.282.439a15.133,15.133,0,0,1-17.717-12L523.266,1504a2.266,2.266,0,0,1,1.592-2.6l28.646-8.334a.76.76,0,0,1,.958.586l2.6,13.535A15.133,15.133,0,0,1,545.06,1524.9Z" transform="translate(-474.891 -1493.031)"/><path class="m" d="M316.717,1579.372l-2.282.439a15.133,15.133,0,0,1-17.717-12l-2.6-13.534a.76.76,0,0,1,.673-.9l29.694-2.881a2.265,2.265,0,0,1,2.444,1.827l1.795,9.336A15.133,15.133,0,0,1,316.717,1579.372Z" transform="translate(-294.102 -1538.362)"/></g><line class="m" y1="2.989" x2="15.55" transform="translate(33.804 16.184)"/></g><g transform="translate(197.592 1325.749)"><path class="n" d="M199.751,1633.114c-2.511,2.464-2.61,7.2-1.429,11.051.771,2.513,2.463,5.191,4.655,5.13,1.148-.032,2.122-.826,3.134-1.4a2.863,2.863,0,0,1,3.281-.1l.321.612c-.5-.96-.673-4.88-1.06-6.306-.458-1.686-.372-5.426-1.029-6.717C206.356,1632.894,201.728,1631.175,199.751,1633.114Z" transform="translate(-197.592 -1610.155)"/><path class="o" d="M744.689,1527.608c3.245,1.357,5.094,5.721,5.424,9.734.216,2.62-.362,5.734-2.421,6.49-1.079.4-2.277.02-3.429-.137a2.864,2.864,0,0,0-3.085,1.123l-.071.687c.112-1.078-1.184-4.781-1.353-6.25-.2-1.735-1.666-5.177-1.534-6.62C738.474,1529.852,742.135,1526.54,744.689,1527.608Z" transform="translate(-624.168 -1527.403)"/></g><g transform="translate(200.312 1271.838)"><g class="p" transform="translate(0)"><path class="q" d="M637.831,1276.65a39.637,39.637,0,0,1,3.42-12.968c2.307-5.551,5.178-11.506,3.59-17.3a308.015,308.015,0,0,0,33.088-5.469,322.632,322.632,0,0,0-7.908,44.458c-.654,6.15-1.143,12.378-3.028,18.268-.686,2.145-2.121,4.615-4.368,4.467a5.16,5.16,0,0,1-2.669-1.276,89.138,89.138,0,0,1-10-9.452,21.927,21.927,0,0,0-4.625-4,16.078,16.078,0,0,1-2.628-1.591c-.937-.82-.887-1.821-1.372-2.825-.625-1.292-1.6-2.365-2.163-3.734A19.958,19.958,0,0,1,637.831,1276.65Z" transform="translate(-547.658 -1247.434)"/></g></g><g transform="translate(259.033 1354.963)"><g transform="translate(8.272 11.281)"><path class="d" d="M571.7,1723.817c.341,4.407-41.593-.071-43.64-4.452" transform="translate(-528.064 -1719.365)"/></g><path class="a" d="M499.937,1673.535a15.979,15.979,0,0,0,1.752-3.013,5.562,5.562,0,0,0,.583-2.292,2.446,2.446,0,0,0-1.019-2.046,2.566,2.566,0,0,0-2.917.41,7.515,7.515,0,0,0-1.74,2.6,2.684,2.684,0,0,0-2.829-1.626,4.1,4.1,0,0,0-2.833,1.908,1.614,1.614,0,0,0-.333.939,1.817,1.817,0,0,0,.41.914,26.655,26.655,0,0,0,1.85,2.33c-1.526.118-3.366.462-3.891,1.9a2.77,2.77,0,0,0,1.463,3.145,8.08,8.08,0,0,0,3.666.735l3.234.134C501.356,1679.738,498.19,1675.9,499.937,1673.535Z" transform="translate(-488.85 -1665.889)"/></g><path class="g" d="M365.534,1839.742a15.966,15.966,0,0,0,1.97,2.875,5.56,5.56,0,0,0,1.82,1.509,2.446,2.446,0,0,0,2.286-.043,2.566,2.566,0,0,0,.88-2.811,7.516,7.516,0,0,0-1.6-2.687,2.684,2.684,0,0,0,2.681-1.859,4.1,4.1,0,0,0-.509-3.377,1.616,1.616,0,0,0-.705-.7,1.818,1.818,0,0,0-1-.021,26.659,26.659,0,0,0-2.9.672c.547-1.429,1.026-3.239-.047-4.329a2.77,2.77,0,0,0-3.468-.027,8.083,8.083,0,0,0-2.236,3L361.2,1834.8C359.322,1838.364,364.145,1837.149,365.534,1839.742Z" transform="translate(-128.756 -439.111)"/></g></svg>