<svg xmlns="http://www.w3.org/2000/svg" xmlns:xlink="http://www.w3.org/1999/xlink" width="182.341" height="197.224" viewBox="0 0 182.341 197.224"><defs><style>.a{fill:#f8a63b;}.b,.d,.e,.m{fill:none;}.c{fill:#ccecf8;opacity:0.36;mix-blend-mode:multiply;isolation:isolate;}.d{stroke:#faa83b;}.d,.e,.m{stroke-miterlimit:10;}.d,.e{stroke-width:4px;}.e{stroke:#fcb83d;}.f{clip-path:url(#a);}.g{fill:#fcb83d;}.h{fill:#fff;}.i{fill:#513114;}.j{fill:#f16e24;}.k{fill:#3f5765;}.l{fill:#2b3a42;}.m{stroke:#2b3a42;stroke-width:3px;}.n{fill:#fcb73d;}.o{fill:#f9a83b;}.p{clip-path:url(#b);}.q{fill:#ee5225;}</style><clipPath id="a"><path class="a" d="M2608.622,271.013a54.946,54.946,0,0,1,.321,9.161c-.022,4.726,1.156,8.934.136,13.7-2,9.376-8.626,16.764-14.588,24.078a67.173,67.173,0,0,1-6.565,7.4c-8.645,7.878-22.208,11.609-33.367,13.754a29.72,29.72,0,0,1-9.755.132c-4.029-.432-8.184,1.493-12.141,1.979-8.366,1.028-16.671-2.458-24.21-6.485-8.008-4.278-15.737-9.3-22.207-15.811-4.218-4.243-7.952-9.26-9.5-15.111a32.8,32.8,0,0,1-.96-7.954,89.01,89.01,0,0,1,2.417-19.6,58.734,58.734,0,0,1,3.991-13.113c2.282-4.8,6.082-7.623,9.329-11.477a67.411,67.411,0,0,1,11.45-10.743,75.662,75.662,0,0,1,62.95-12.166c13.22,3.451,25.773,10.96,34.07,22.384a50.031,50.031,0,0,1,8.318,18.253C2608.435,269.94,2608.538,270.48,2608.622,271.013Z" transform="translate(-2475.78 -226.434)"/></clipPath><clipPath id="b"><path class="b" d="M2452.849,132.062c6.051-15.21,20.591-25.712,36.055-31.079s32.039-6.365,48.344-7.815,32.933-3.5,47.629-10.711c-1.824,21.087.694,46.022-.537,67.152-7.33-8.437-15.141-17.725-23.161-17.141-26.208,1.91-47.5-.365-72.717,7.018-8.112,2.375-19.5,4.333-22.025,12.4-1.386,4.427-3.405,10.289-3.923,14.9-2.176,19.411-10.482,2.429-11.848-5.615C2449.017,151.46,2449.165,141.321,2452.849,132.062Z" transform="translate(-2449.66 -82.457)"/></clipPath></defs><g transform="translate(0)"><path class="c" d="M2501.722,820.866a39.7,39.7,0,0,0,18.472.7c8.627-1.513,17.325-6.564,26.092-5.419,10.907,1.425,21.563,4.491,32.621,4.511a9.669,9.669,0,0,0,3.244-.393,5.834,5.834,0,0,0,3.711-4.91,5.688,5.688,0,0,0-2.874-5.467,8.688,8.688,0,0,0-3.407-.729c-10.371-.669-21.385,1.424-31.878,1.862-5.135.214-10.185,1.15-14.974-1.205a30.2,30.2,0,0,0-13.272-2.876,172.75,172.75,0,0,0-18.3,1.129,16.748,16.748,0,0,0-5.166,1.378c-2.178,1-2.814.919-5.416,1.112-14.156,1.05-29.257-.692-43.362-2.711-1.95-.279-4-.573-5.827.216a6.141,6.141,0,0,0-3.455,5.9,6.006,6.006,0,0,0,4.174,5.345,10.855,10.855,0,0,0,4.755-.174,153.136,153.136,0,0,1,22.5-2.32c6.489-.2,13.128-2.007,19.61-.875,3.9.68,7.433,3,11.122,4.369Q2500.9,820.615,2501.722,820.866Z" transform="translate(-2437.632 -625.098)"/><line class="d" y2="35.874" transform="translate(81.769 149.15)"/><line class="d" y2="35.874" transform="translate(66.808 149.15)"/><g transform="translate(56.314 182.992)"><path class="a" d="M2662.214,815.5a7.843,7.843,0,0,1,5.55-1.156,1.559,1.559,0,0,0,1.984-1.487l3.74-1.349c.34,1.009,1.765,1.9,2.19,2.912.673,1.6-1.123,2.52-2.376,2.967a5.592,5.592,0,0,1-1.439.346,7.055,7.055,0,0,1-1.5-.276,6.934,6.934,0,0,0-2,.043c-2.23.357-4.531,1.391-6.661.106a1.158,1.158,0,0,1-.543-.559.872.872,0,0,1,.142-.756A3.583,3.583,0,0,1,2662.214,815.5Z" transform="translate(-2661.124 -811.512)"/></g><g transform="translate(77.594 182.982)"><path class="a" d="M2759.517,815.472a8.509,8.509,0,0,0-5.551-1.156,1.83,1.83,0,0,1-2.016-1.487l-3.74-1.36c-.34,1.36-1.733,1.911-2.158,2.923-.672,1.6,1.123,2.52,2.376,2.967a5.594,5.594,0,0,0,1.439.346,7.057,7.057,0,0,0,1.5-.276,6.934,6.934,0,0,1,2,.043c2.23.357,4.531,1.391,6.66.106a1.157,1.157,0,0,0,.543-.559.872.872,0,0,0-.142-.757A3.585,3.585,0,0,0,2759.517,815.472Z" transform="translate(-2745.906 -811.469)"/></g><path class="e" d="M2479.943,562.748s-10.764,15.1-6.2,30.548c0,0,13.744,3.414,33.26-1.951" transform="translate(-2463.617 -442.195)"/><g transform="translate(9.793 36.138)"><path class="a" d="M2608.622,271.013a54.946,54.946,0,0,1,.321,9.161c-.022,4.726,1.156,8.934.136,13.7-2,9.376-8.626,16.764-14.588,24.078a67.173,67.173,0,0,1-6.565,7.4c-8.645,7.878-22.208,11.609-33.367,13.754a29.72,29.72,0,0,1-9.755.132c-4.029-.432-8.184,1.493-12.141,1.979-8.366,1.028-16.671-2.458-24.21-6.485-8.008-4.278-15.737-9.3-22.207-15.811-4.218-4.243-7.952-9.26-9.5-15.111a32.8,32.8,0,0,1-.96-7.954,89.01,89.01,0,0,1,2.417-19.6,58.734,58.734,0,0,1,3.991-13.113c2.282-4.8,6.082-7.623,9.329-11.477a67.411,67.411,0,0,1,11.45-10.743,75.662,75.662,0,0,1,62.95-12.166c13.22,3.451,25.773,10.96,34.07,22.384a50.031,50.031,0,0,1,8.318,18.253C2608.435,269.94,2608.538,270.48,2608.622,271.013Z" transform="translate(-2475.78 -226.434)"/><g class="f"><path class="g" d="M2558.763,241.122a44.379,44.379,0,0,1,.555,17.12c-.915,5.1-2.909,9.9-4.889,14.658-2,4.793-4.022,9.64-7.085,13.777-4.975,6.72-12.406,11.131-20.2,13.766s-16.029,3.638-24.2,4.627c-8.394,1.016-17.392,3.2-25.847,3.129-5.971-.047-14.091-3.438-19.385-6.339-3.733-2.045-7.523-5.792-10.638-8.765a51.165,51.165,0,0,1-15.049-27.167c-5.907-30.73,18.31-61.217,54.091-68.1a73.2,73.2,0,0,1,40.718,3.534c9.234,3.671,17.063,11.061,23.1,19.174a49.942,49.942,0,0,1,7.177,14.468A62.082,62.082,0,0,1,2558.763,241.122Z" transform="translate(-2442.343 -203.974)"/></g></g><path class="h" d="M2609.772,387.706a7.956,7.956,0,0,0,.252,3.871,6.5,6.5,0,0,0,1.7,3.61c1.462,1.257,3.652.968,5.546.606l2.722-.519a7.423,7.423,0,0,0,2.98-1.027c1.841-1.311,2.086-3.906,2.12-6.166a7.382,7.382,0,0,0-.456-3.265C2621.26,377.61,2611.485,381.424,2609.772,387.706Z" transform="translate(-2566.232 -305.995)"/><path class="h" d="M2786.863,341.894a12.158,12.158,0,0,0,.489,11.659,6.95,6.95,0,0,0,2.979,2.822,8.558,8.558,0,0,0,5.079.166c3.37-.667,6.778-1.946,9.061-4.513s3.09-6.668,1.128-9.487a12.317,12.317,0,0,0-2.4-2.372c-2.939-2.411-4.932-5.256-8.806-4.391A11.918,11.918,0,0,0,2786.863,341.894Z" transform="translate(-2698.047 -272.075)"/><path class="i" d="M2826.62,345.346a2.808,2.808,0,0,0,3.9,2.045c1.728-.944,1.43-3.144.115-4.318C2828.772,341.414,2826.279,342.855,2826.62,345.346Z" transform="translate(-2728.743 -277.126)"/><path class="i" d="M2644.816,383.663a2.239,2.239,0,0,0,3.108,1.632c1.379-.753,1.142-2.508.092-3.445A1.906,1.906,0,0,0,2644.816,383.663Z" transform="translate(-2592.576 -306.277)"/><path class="j" d="M2452.849,132.062c6.051-15.21,20.591-25.712,36.055-31.079s32.039-6.365,48.344-7.815,32.933-3.5,47.629-10.711c-1.824,21.087.694,46.022-.537,67.152-7.33-8.437-15.141-17.725-23.161-17.141-26.208,1.91-47.5-.365-72.717,7.018-8.112,2.375-19.5,4.333-22.025,12.4-1.386,4.427-3.405,10.289-3.923,14.9-2.176,19.411-10.482,2.429-11.848-5.615C2449.017,151.46,2449.165,141.321,2452.849,132.062Z" transform="translate(-2446.423 -82.457)"/><g transform="translate(62.875 131.254)"><path class="k" d="M2788.007,617.32c3.858-3.174,8.915-7.57,12.773-10.744.936-.77,2.611-1.855,3.661-.672a4.034,4.034,0,0,1,.762,1.838,58.872,58.872,0,0,1,1.646,9c.161,2.442,1.385,4.88.782,7.367a1.681,1.681,0,0,1-.428.86,1.973,1.973,0,0,1-1.166.386,52.506,52.506,0,0,1-12.291.342c-1.733-.224-4.155-.278-4.878-2.034a12.268,12.268,0,0,1-.836-3.207C2787.974,619.967,2787.614,617.644,2788.007,617.32Z" transform="translate(-2762.585 -605.381)"/><path class="k" d="M2691.942,640.695c-1.464-.379-3.485-.718-4.286.953-1.2,2.5.683,6.213,1.355,8.644.836,3.022,2.109,9.665,6.55,9.158,1.868-.214,3.53-1.726,5.114-2.635l6-3.447a4.546,4.546,0,0,0,1.352-1.02c1.008-1.263.056-4.427-.7-5.707-.926-1.576-2.727-2.336-4.312-3.074C2699.807,642.068,2695.406,641.5,2691.942,640.695Z" transform="translate(-2687.265 -631.599)"/><path class="l" d="M2794.281,609.791c1.591-1.457,3.614-2.966,5.865-2.981a1.661,1.661,0,0,1,.933.207,1.3,1.3,0,0,1,.412,1.462,3.279,3.279,0,0,1-.937,1.313,41.912,41.912,0,0,1-6.344,4.888,37.982,37.982,0,0,1-6.447,3.838c-.484.187-1.352.539-1.461-.259-.1-.718.862-1.261,1.3-1.673.846-.8,1.662-1.64,2.487-2.464C2791.5,612.708,2792.806,611.141,2794.281,609.791Z" transform="translate(-2761.44 -606.451)"/><path class="l" d="M2708.67,643.874q1.171.18,2.342.363c.723.113,2.3.719,2.99.332,1.332-.746-1.955-2.788-2.411-3.035a15.3,15.3,0,0,0-5.013-1.611c-1.377-.209-9.452-1.229-9.374,1.138a1.372,1.372,0,0,0,.781,1.1,4.061,4.061,0,0,0,1.359.353q3.895.541,7.782,1.128Z" transform="translate(-2694.709 -630.955)"/><rect class="l" width="8.86" height="8.86" rx="4.43" transform="translate(18.301 12.687) rotate(-10.882)"/></g><g transform="translate(24.224 55.519)"><path class="m" d="M2788.378,341.568l-2.716.522a18.005,18.005,0,0,1-21.081-14.283l-2.135-11.108a2.7,2.7,0,0,1,1.894-3.1l34.084-9.917a.9.9,0,0,1,1.14.7l3.1,16.1A18.005,18.005,0,0,1,2788.378,341.568Z" transform="translate(-2704.888 -303.65)"/><path class="m" d="M2560.183,395.476l-2.715.522a18.006,18.006,0,0,1-21.081-14.283l-3.1-16.1a.9.9,0,0,1,.8-1.07l35.331-3.428a2.7,2.7,0,0,1,2.907,2.174l2.136,11.108A18.006,18.006,0,0,1,2560.183,395.476Z" transform="translate(-2533.274 -346.68)"/><line class="m" y1="3.557" x2="18.503" transform="translate(40.222 19.256)"/></g><g transform="translate(0 64.147)"><path class="n" d="M2439.334,443.891c-2.987,2.931-3.1,8.57-1.7,13.149.917,2.99,2.93,6.177,5.539,6.1,1.367-.038,2.525-.983,3.729-1.665s2.74-1.08,3.9-.12l.382.728c-.6-1.143-.8-5.807-1.262-7.5-.545-2.006-.443-6.456-1.225-7.992C2447.192,443.629,2441.685,441.584,2439.334,443.891Z" transform="translate(-2436.765 -416.574)"/><path class="o" d="M2985.092,338.266c3.861,1.614,6.061,6.807,6.454,11.581.257,3.117-.431,6.823-2.881,7.722-1.283.471-2.709.024-4.08-.163s-2.945.013-3.67,1.336q-.042.409-.085.818c.133-1.283-1.409-5.689-1.611-7.437-.238-2.065-1.982-6.16-1.825-7.877C2977.7,340.936,2982.052,336.995,2985.092,338.266Z" transform="translate(-2841.688 -338.022)"/></g><g transform="translate(3.237)"><g class="p"><path class="q" d="M2877.01,94.054c.283-5.338,2.018-10.493,4.07-15.429,2.745-6.6,6.162-13.691,4.271-20.589a366.443,366.443,0,0,0,39.371-6.507,383.924,383.924,0,0,0-9.41,52.9c-.778,7.317-1.36,14.728-3.6,21.736-.816,2.552-2.523,5.491-5.2,5.315a6.143,6.143,0,0,1-3.175-1.518,106.1,106.1,0,0,1-11.9-11.246,26.085,26.085,0,0,0-5.5-4.76,19.11,19.11,0,0,1-3.127-1.893c-1.115-.976-1.055-2.167-1.632-3.362-.744-1.538-1.908-2.814-2.575-4.443A23.753,23.753,0,0,1,2877.01,94.054Z" transform="translate(-2769.717 -59.291)"/></g></g><g transform="translate(127.4 84.622)"><g transform="translate(0 13.422)"><path class="d" d="M2944.336,493.54c19.707,13.264,27.286,4.169,45.1-20.465" transform="translate(-2944.336 -473.075)"/></g><path class="a" d="M3102.375,428.7a18.979,18.979,0,0,1-2.085-3.585,6.623,6.623,0,0,1-.694-2.727,2.911,2.911,0,0,1,1.213-2.435,3.053,3.053,0,0,1,3.471.488,8.946,8.946,0,0,1,2.071,3.093,3.193,3.193,0,0,1,3.366-1.934,4.875,4.875,0,0,1,3.371,2.27,1.921,1.921,0,0,1,.4,1.117,2.166,2.166,0,0,1-.488,1.087,31.68,31.68,0,0,1-2.2,2.772c1.815.141,4,.549,4.63,2.26a3.3,3.3,0,0,1-1.741,3.742,9.621,9.621,0,0,1-4.362.874l-3.848.159C3100.687,436.077,3104.453,431.513,3102.375,428.7Z" transform="translate(-3060.626 -419.599)"/></g><path class="g" d="M2605.611,652.524a19.02,19.02,0,0,0,2.344,3.421,6.616,6.616,0,0,0,2.166,1.8,2.911,2.911,0,0,0,2.72-.052,3.054,3.054,0,0,0,1.047-3.345,8.949,8.949,0,0,0-1.906-3.2,3.193,3.193,0,0,0,3.19-2.212,4.875,4.875,0,0,0-.6-4.019,1.92,1.92,0,0,0-.839-.837,2.165,2.165,0,0,0-1.191-.026,31.663,31.663,0,0,0-3.448.8c.651-1.7,1.22-3.854-.056-5.152a3.3,3.3,0,0,0-4.127-.031,9.62,9.62,0,0,0-2.66,3.566l-1.794,3.408C2598.22,650.885,2603.959,649.44,2605.611,652.524Z" transform="translate(-2558.986 -499.279)"/><g transform="translate(61.973 104.847)"><path class="i" d="M2690.732,518.57a11.633,11.633,0,0,0,1.813,1.781c4.079,3.21,9.479,4.4,14.421,5.546a27.357,27.357,0,0,0,10.031.735c3.383-.489,7.607-2.121,8.968-5.479a11.558,11.558,0,0,0,.393-6.311Z" transform="translate(-2688.959 -511.161)"/><path class="h" d="M2720.282,500.176c-3.171.2-36.66,1.459-36.614,3.235a7.136,7.136,0,0,0,1.773,4.174l35.627-3.728C2720.861,502.615,2720.558,501.38,2720.282,500.176Z" transform="translate(-2683.669 -500.176)"/></g></g></svg>