<svg xmlns="http://www.w3.org/2000/svg" xmlns:xlink="http://www.w3.org/1999/xlink" width="149.907" height="197.224" viewBox="0 0 149.907 197.224"><defs><style>.a{fill:#f8a63b;}.b,.d,.e,.m{fill:none;}.c{fill:#ccecf8;opacity:0.36;mix-blend-mode:multiply;isolation:isolate;}.d{stroke:#faa83b;}.d,.e,.m{stroke-miterlimit:10;}.d,.e{stroke-width:4px;}.e{stroke:#fcb83d;}.f{clip-path:url(#a);}.g{fill:#fcb83d;}.h{fill:#fff;}.i{fill:#513114;}.j{fill:#f16e24;}.k{fill:#3f5765;}.l{fill:#2b3a42;}.m{stroke:#2b3a42;stroke-width:3px;}.n{fill:#fcb73d;}.o{fill:#f9a83b;}.p{clip-path:url(#b);}.q{fill:#ee5225;}</style><clipPath id="a"><path class="a" d="M369.45,1460.394a54.948,54.948,0,0,1,.321,9.161c-.022,4.726,1.155,8.934.136,13.7-2.005,9.376-8.627,16.764-14.589,24.078a67.116,67.116,0,0,1-6.565,7.4c-8.645,7.878-22.208,11.609-33.367,13.754a29.728,29.728,0,0,1-9.755.132c-4.029-.432-8.184,1.493-12.141,1.979-8.367,1.028-16.671-2.458-24.21-6.485-8.008-4.278-15.738-9.3-22.207-15.812-4.218-4.243-7.953-9.26-9.5-15.111a32.8,32.8,0,0,1-.961-7.953,89,89,0,0,1,2.418-19.6,58.732,58.732,0,0,1,3.991-13.114c2.283-4.8,6.082-7.623,9.329-11.477A67.435,67.435,0,0,1,263.8,1430.3a75.66,75.66,0,0,1,62.95-12.166c13.22,3.451,25.774,10.96,34.07,22.385a50.021,50.021,0,0,1,8.318,18.253C369.263,1459.321,369.366,1459.862,369.45,1460.394Z" transform="translate(-236.608 -1415.815)"/></clipPath><clipPath id="b"><path class="b" d="M213.676,1321.443c6.051-15.209,20.591-25.712,36.055-31.08s32.039-6.365,48.344-7.815,32.933-3.5,47.629-10.711c-1.824,21.087.695,46.022-.537,67.152-7.33-8.437-15.141-17.725-23.161-17.141-26.208,1.91-47.5-.365-72.717,7.018-8.112,2.375-19.5,4.333-22.025,12.4-1.386,4.427-3.405,10.289-3.923,14.9-2.176,19.411-10.482,2.429-11.848-5.615C209.844,1340.841,209.992,1330.7,213.676,1321.443Z" transform="translate(-210.487 -1271.838)"/></clipPath></defs><g transform="translate(0 0)"><path class="c" d="M262.549,2010.249a39.7,39.7,0,0,0,18.472.7c8.628-1.513,17.325-6.564,26.092-5.419,10.907,1.425,21.563,4.491,32.621,4.511a9.671,9.671,0,0,0,3.244-.392,5.836,5.836,0,0,0,3.711-4.911,5.689,5.689,0,0,0-2.874-5.466,8.685,8.685,0,0,0-3.407-.729c-10.371-.669-21.385,1.424-31.879,1.861-5.134.214-10.185,1.15-14.974-1.205a30.189,30.189,0,0,0-13.272-2.876,172.741,172.741,0,0,0-18.3,1.129,16.746,16.746,0,0,0-5.167,1.378c-2.178.995-2.814.919-5.416,1.112-14.155,1.051-29.257-.692-43.362-2.711-1.95-.279-4-.573-5.826.216a6.141,6.141,0,0,0-3.455,5.9,6.006,6.006,0,0,0,4.174,5.345,10.844,10.844,0,0,0,4.755-.174,153.185,153.185,0,0,1,22.5-2.32c6.49-.2,13.128-2.007,19.61-.875,3.9.68,7.433,3,11.122,4.37Q261.73,2010,262.549,2010.249Z" transform="translate(-198.46 -1814.48)"/><line class="d" y2="35.874" transform="translate(81.769 149.15)"/><line class="d" y2="35.874" transform="translate(66.808 149.15)"/><g transform="translate(56.314 182.992)"><path class="a" d="M423.041,2004.885a7.843,7.843,0,0,1,5.55-1.156,1.559,1.559,0,0,0,1.984-1.487l3.74-1.349c.34,1.01,1.765,1.9,2.19,2.912.673,1.6-1.123,2.52-2.376,2.967a5.6,5.6,0,0,1-1.439.346,7.059,7.059,0,0,1-1.5-.276,6.954,6.954,0,0,0-2,.043c-2.23.357-4.532,1.391-6.66.106a1.157,1.157,0,0,1-.543-.559.873.873,0,0,1,.142-.757A3.591,3.591,0,0,1,423.041,2004.885Z" transform="translate(-421.951 -2000.893)"/></g><g transform="translate(77.594 182.982)"><path class="a" d="M520.344,2004.854a8.51,8.51,0,0,0-5.551-1.156,1.83,1.83,0,0,1-2.016-1.487l-3.74-1.36c-.34,1.36-1.733,1.911-2.158,2.923-.673,1.6,1.123,2.52,2.376,2.967a5.617,5.617,0,0,0,1.439.346,7.083,7.083,0,0,0,1.5-.276,6.95,6.95,0,0,1,2,.043c2.23.357,4.532,1.391,6.66.106a1.157,1.157,0,0,0,.543-.559.873.873,0,0,0-.142-.757A3.591,3.591,0,0,0,520.344,2004.854Z" transform="translate(-506.733 -2000.851)"/></g><path class="e" d="M240.77,1752.129s-10.765,15.1-6.2,30.548c0,0,13.744,3.414,33.259-1.951" transform="translate(-224.444 -1631.576)"/><g transform="translate(9.793 36.138)"><path class="a" d="M369.45,1460.394a54.948,54.948,0,0,1,.321,9.161c-.022,4.726,1.155,8.934.136,13.7-2.005,9.376-8.627,16.764-14.589,24.078a67.116,67.116,0,0,1-6.565,7.4c-8.645,7.878-22.208,11.609-33.367,13.754a29.728,29.728,0,0,1-9.755.132c-4.029-.432-8.184,1.493-12.141,1.979-8.367,1.028-16.671-2.458-24.21-6.485-8.008-4.278-15.738-9.3-22.207-15.812-4.218-4.243-7.953-9.26-9.5-15.111a32.8,32.8,0,0,1-.961-7.953,89,89,0,0,1,2.418-19.6,58.732,58.732,0,0,1,3.991-13.114c2.283-4.8,6.082-7.623,9.329-11.477A67.435,67.435,0,0,1,263.8,1430.3a75.66,75.66,0,0,1,62.95-12.166c13.22,3.451,25.774,10.96,34.07,22.385a50.021,50.021,0,0,1,8.318,18.253C369.263,1459.321,369.366,1459.862,369.45,1460.394Z" transform="translate(-236.608 -1415.815)"/><g class="f"><path class="g" d="M319.591,1430.5a44.379,44.379,0,0,1,.555,17.12c-.915,5.1-2.909,9.9-4.889,14.659-2,4.793-4.022,9.64-7.085,13.777-4.975,6.72-12.406,11.131-20.2,13.766s-16.028,3.638-24.2,4.627c-8.394,1.016-17.392,3.2-25.847,3.13-5.971-.047-14.09-3.438-19.385-6.339-3.733-2.046-7.523-5.792-10.638-8.766a51.167,51.167,0,0,1-15.049-27.167c-5.907-30.73,18.31-61.217,54.091-68.1a73.2,73.2,0,0,1,40.718,3.535c9.234,3.671,17.063,11.061,23.1,19.174a49.955,49.955,0,0,1,7.178,14.468A62.115,62.115,0,0,1,319.591,1430.5Z" transform="translate(-203.17 -1393.355)"/></g></g><path class="h" d="M370.6,1577.088a7.963,7.963,0,0,0,.252,3.871,6.508,6.508,0,0,0,1.7,3.61c1.462,1.257,3.653.968,5.547.607l2.722-.519a7.423,7.423,0,0,0,2.98-1.027c1.841-1.312,2.086-3.907,2.12-6.166a7.383,7.383,0,0,0-.456-3.265C382.088,1566.992,372.313,1570.806,370.6,1577.088Z" transform="translate(-327.06 -1495.377)"/><path class="h" d="M547.69,1531.276a12.157,12.157,0,0,0,.489,11.658,6.951,6.951,0,0,0,2.98,2.822,8.561,8.561,0,0,0,5.079.166c3.369-.667,6.778-1.946,9.06-4.513s3.09-6.668,1.128-9.487a12.316,12.316,0,0,0-2.4-2.371c-2.939-2.411-4.932-5.257-8.806-4.391A11.919,11.919,0,0,0,547.69,1531.276Z" transform="translate(-458.875 -1461.457)"/><path class="i" d="M587.448,1534.728a2.807,2.807,0,0,0,3.9,2.046c1.728-.944,1.431-3.144.115-4.318C589.6,1530.8,587.107,1532.236,587.448,1534.728Z" transform="translate(-489.571 -1466.507)"/><path class="i" d="M405.643,1573.044a2.24,2.24,0,0,0,3.109,1.632c1.378-.753,1.141-2.508.092-3.445A1.906,1.906,0,0,0,405.643,1573.044Z" transform="translate(-353.403 -1495.658)"/><path class="j" d="M213.676,1321.443c6.051-15.209,20.591-25.712,36.055-31.08s32.039-6.365,48.344-7.815,32.933-3.5,47.629-10.711c-1.824,21.087.695,46.022-.537,67.152-7.33-8.437-15.141-17.725-23.161-17.141-26.208,1.91-47.5-.365-72.717,7.018-8.112,2.375-19.5,4.333-22.025,12.4-1.386,4.427-3.405,10.289-3.923,14.9-2.176,19.411-10.482,2.429-11.848-5.615C209.844,1340.841,209.992,1330.7,213.676,1321.443Z" transform="translate(-207.25 -1271.838)"/><g transform="translate(62.875 131.254)"><path class="k" d="M548.834,1806.7c3.858-3.174,8.915-7.57,12.773-10.744.936-.77,2.611-1.856,3.661-.672a4.033,4.033,0,0,1,.762,1.838,58.9,58.9,0,0,1,1.646,9c.161,2.442,1.385,4.88.782,7.367a1.68,1.68,0,0,1-.428.86,1.976,1.976,0,0,1-1.166.385,52.511,52.511,0,0,1-12.291.342c-1.733-.224-4.154-.278-4.878-2.034a12.272,12.272,0,0,1-.836-3.207C548.8,1809.349,548.442,1807.025,548.834,1806.7Z" transform="translate(-523.412 -1794.762)"/><path class="k" d="M452.769,1830.077c-1.464-.38-3.485-.718-4.286.953-1.2,2.5.683,6.213,1.356,8.644.835,3.022,2.108,9.665,6.55,9.158,1.868-.214,3.53-1.726,5.114-2.635l6-3.447a4.547,4.547,0,0,0,1.352-1.02c1.008-1.264.056-4.427-.7-5.708-.926-1.576-2.726-2.336-4.312-3.074C460.634,1831.45,456.234,1830.881,452.769,1830.077Z" transform="translate(-448.092 -1820.98)"/><path class="l" d="M555.109,1799.172c1.591-1.457,3.614-2.966,5.865-2.981a1.663,1.663,0,0,1,.933.207,1.3,1.3,0,0,1,.412,1.461,3.273,3.273,0,0,1-.936,1.313,41.879,41.879,0,0,1-6.344,4.889,38.014,38.014,0,0,1-6.447,3.838c-.483.187-1.352.539-1.46-.259-.1-.718.862-1.262,1.3-1.673.847-.8,1.663-1.64,2.487-2.464C552.33,1802.089,553.634,1800.522,555.109,1799.172Z" transform="translate(-522.268 -1795.832)"/><path class="l" d="M469.5,1833.256q1.171.179,2.341.363c.723.114,2.3.719,2.991.332,1.332-.746-1.956-2.787-2.411-3.035a15.289,15.289,0,0,0-5.013-1.611c-1.378-.209-9.452-1.229-9.374,1.138a1.372,1.372,0,0,0,.781,1.1,4.065,4.065,0,0,0,1.359.353q3.894.541,7.782,1.128Z" transform="translate(-455.536 -1820.336)"/><rect class="l" width="8.86" height="8.86" rx="4.43" transform="translate(18.301 12.687) rotate(-10.882)"/></g><g transform="translate(24.224 55.519)"><path class="m" d="M549.205,1530.95l-2.716.522a18.005,18.005,0,0,1-21.081-14.283l-2.135-11.108a2.7,2.7,0,0,1,1.894-3.1l34.084-9.916a.9.9,0,0,1,1.14.7l3.1,16.1A18.006,18.006,0,0,1,549.205,1530.95Z" transform="translate(-465.715 -1493.031)"/><path class="m" d="M321.01,1584.857l-2.716.522a18.006,18.006,0,0,1-21.081-14.283l-3.1-16.1a.9.9,0,0,1,.8-1.071l35.331-3.428a2.7,2.7,0,0,1,2.908,2.175l2.136,11.108A18.005,18.005,0,0,1,321.01,1584.857Z" transform="translate(-294.102 -1536.061)"/><line class="m" y1="3.557" x2="18.503" transform="translate(40.222 19.256)"/></g><g transform="translate(0 64.147)"><path class="n" d="M200.161,1633.273c-2.987,2.931-3.105,8.57-1.7,13.149.917,2.99,2.93,6.177,5.539,6.1,1.366-.038,2.525-.982,3.729-1.664s2.74-1.08,3.9-.12l.382.728c-.6-1.142-.8-5.806-1.262-7.5-.545-2.005-.443-6.456-1.225-7.992C208.02,1633.01,202.513,1630.965,200.161,1633.273Z" transform="translate(-197.592 -1605.955)"/><path class="o" d="M745.919,1527.647c3.861,1.615,6.061,6.808,6.454,11.582.257,3.118-.431,6.823-2.88,7.722-1.283.471-2.709.024-4.08-.163s-2.945.013-3.67,1.337l-.085.818c.134-1.283-1.409-5.689-1.61-7.437-.238-2.065-1.982-6.16-1.826-7.877C738.524,1530.317,742.88,1526.376,745.919,1527.647Z" transform="translate(-602.516 -1527.403)"/></g><g transform="translate(3.237)"><g class="p"><path class="q" d="M637.837,1283.436c.283-5.338,2.018-10.493,4.07-15.429,2.745-6.6,6.162-13.691,4.271-20.589a366.529,366.529,0,0,0,39.37-6.507,383.89,383.89,0,0,0-9.41,52.9c-.778,7.317-1.36,14.728-3.6,21.736-.817,2.552-2.524,5.491-5.2,5.315a6.141,6.141,0,0,1-3.175-1.518,106.085,106.085,0,0,1-11.895-11.246,26.092,26.092,0,0,0-5.5-4.76,19.123,19.123,0,0,1-3.127-1.893c-1.115-.976-1.055-2.167-1.632-3.362-.743-1.538-1.908-2.814-2.574-4.443A23.745,23.745,0,0,1,637.837,1283.436Z" transform="translate(-530.544 -1248.673)"/></g></g><g transform="translate(73.106 98.907)"><g transform="translate(9.843 13.423)"><path class="d" d="M579.99,1724.663c.405,5.244-49.49-.084-51.926-5.3" transform="translate(-528.064 -1719.365)"/></g><path class="a" d="M502.042,1674.987a19.011,19.011,0,0,0,2.085-3.585,6.617,6.617,0,0,0,.694-2.727,2.91,2.91,0,0,0-1.213-2.435,3.053,3.053,0,0,0-3.471.488,8.94,8.94,0,0,0-2.071,3.093,3.194,3.194,0,0,0-3.366-1.934,4.874,4.874,0,0,0-3.371,2.27,1.92,1.92,0,0,0-.4,1.117,2.161,2.161,0,0,0,.487,1.087,31.674,31.674,0,0,0,2.2,2.772c-1.815.141-4,.549-4.63,2.259a3.3,3.3,0,0,0,1.741,3.742,9.618,9.618,0,0,0,4.362.874l3.848.159C503.73,1682.367,499.964,1677.8,502.042,1674.987Z" transform="translate(-488.85 -1665.889)"/></g><path class="g" d="M366.438,1841.906a19,19,0,0,0,2.344,3.421,6.614,6.614,0,0,0,2.166,1.8,2.91,2.91,0,0,0,2.72-.051,3.054,3.054,0,0,0,1.047-3.345,8.945,8.945,0,0,0-1.906-3.2,3.193,3.193,0,0,0,3.19-2.212,4.874,4.874,0,0,0-.605-4.019,1.922,1.922,0,0,0-.839-.837,2.166,2.166,0,0,0-1.191-.026,31.683,31.683,0,0,0-3.448.8c.651-1.7,1.221-3.853-.056-5.151a3.3,3.3,0,0,0-4.127-.031,9.616,9.616,0,0,0-2.66,3.566l-1.794,3.408C359.048,1840.267,364.786,1838.821,366.438,1841.906Z" transform="translate(-319.813 -1688.661)"/></g></svg>