<svg xmlns="http://www.w3.org/2000/svg" xmlns:xlink="http://www.w3.org/1999/xlink" width="98.998" height="99.423" viewBox="0 0 98.998 99.423"><defs><style>.a{fill:#f8a63b;}.b,.d,.e,.m{fill:none;}.c{fill:#ccecf8;opacity:0.36;mix-blend-mode:multiply;isolation:isolate;}.d{stroke:#faa83b;}.d,.e,.m{stroke-miterlimit:10;stroke-width:2px;}.e{stroke:#fcb83d;}.f{fill:#fcb83d;}.g{clip-path:url(#a);}.h{fill:#fff;}.i{fill:#513114;}.j{fill:#f16e24;}.k{fill:#3f5765;}.l{fill:#2b3a42;}.m{stroke:#2b3a42;}.n{fill:#fcb73d;}.o{fill:#f9a83b;}.p{clip-path:url(#b);}.q{fill:#ee5225;}</style><clipPath id="a"><path class="a" d="M236.305,259.156a29.412,29.412,0,0,1-.757,4.846c-.489,2.481-.3,4.811-1.313,7.214-2,4.724-6.226,7.938-10.1,11.179a35.928,35.928,0,0,1-4.2,3.223c-5.338,3.266-12.842,3.857-18.922,3.857a15.9,15.9,0,0,1-5.139-.916c-2.073-.634-4.451-.042-6.579-.186-4.5-.3-8.512-2.976-12.066-5.853a49.207,49.207,0,0,1-10.072-10.552,18.55,18.55,0,0,1-3.466-8.9,17.558,17.558,0,0,1,.3-4.276,47.619,47.619,0,0,1,3.251-10.057,31.42,31.42,0,0,1,3.422-6.488c1.684-2.292,3.966-3.391,6.061-5.089a36.074,36.074,0,0,1,7.1-4.488,40.483,40.483,0,0,1,34.306-.034,32.581,32.581,0,0,1,15.641,15.2,26.767,26.767,0,0,1,2.527,10.432C236.315,258.573,236.315,258.867,236.305,259.156Z" transform="translate(-163.666 -228.837)"/></clipPath><clipPath id="b"><path class="b" d="M168.649,145.034c4.716-7.381,13.417-11.431,22.085-12.689s17.478-.108,26.192.777,17.659,1.487,26.109-.817c-3.089,10.9-4.284,24.254-7.065,35.233-3-5.174-6.166-10.844-10.439-11.347-13.964-1.644-24.921-4.99-38.919-3.658-4.5.429-10.684.307-12.825,4.291a47.807,47.807,0,0,0-3.567,7.435c-3.1,9.98-5.753.217-5.659-4.148A28.938,28.938,0,0,1,168.649,145.034Z" transform="translate(-164.56 -131.789)"/></clipPath></defs><path class="c" d="M173.383,814.394a21.243,21.243,0,0,0,9.884.377c4.617-.81,9.27-3.513,13.961-2.9,5.836.762,11.538,2.4,17.455,2.414a5.177,5.177,0,0,0,1.736-.21,3.122,3.122,0,0,0,1.985-2.628,3.045,3.045,0,0,0-1.538-2.925,4.647,4.647,0,0,0-1.823-.39c-5.549-.358-11.443.762-17.058,1-2.747.114-5.45.615-8.012-.645a16.162,16.162,0,0,0-7.1-1.539,92.422,92.422,0,0,0-9.79.6,8.958,8.958,0,0,0-2.764.737,6.341,6.341,0,0,1-2.9.595c-7.574.562-15.655-.37-23.2-1.45a5.761,5.761,0,0,0-3.117.116,3.286,3.286,0,0,0-1.849,3.158,3.214,3.214,0,0,0,2.233,2.86,5.81,5.81,0,0,0,2.544-.093,81.933,81.933,0,0,1,12.039-1.241c3.472-.109,7.024-1.074,10.493-.468,2.084.364,3.977,1.6,5.951,2.338Q172.944,814.259,173.383,814.394Z" transform="translate(-138.195 -715.75)"/><line class="d" y2="19.196" transform="translate(44.646 73.698)"/><line class="d" y2="19.196" transform="translate(36.64 73.698)"/><g transform="translate(31.025 91.808)"><g transform="translate(0 0)"><path class="a" d="M363.03,813.648a4.2,4.2,0,0,1,2.97-.619.834.834,0,0,0,1.062-.8l2-.722c.182.54.945,1.017,1.172,1.558.36.857-.6,1.348-1.271,1.588a3,3,0,0,1-.77.185,3.772,3.772,0,0,1-.8-.148,3.711,3.711,0,0,0-1.073.023c-1.193.191-2.425.744-3.564.057a.619.619,0,0,1-.29-.3.467.467,0,0,1,.076-.4A1.925,1.925,0,0,1,363.03,813.648Z" transform="translate(-362.447 -811.512)"/></g></g><g transform="translate(42.411 91.802)"><g transform="translate(0.001 0)"><path class="a" d="M454.511,813.611a4.553,4.553,0,0,0-2.97-.619.979.979,0,0,1-1.079-.8l-2-.728c-.182.728-.927,1.022-1.155,1.564-.36.857.6,1.348,1.271,1.588a2.991,2.991,0,0,0,.77.185,3.775,3.775,0,0,0,.8-.148,3.713,3.713,0,0,1,1.073.023c1.193.191,2.425.744,3.564.057a.62.62,0,0,0,.291-.3.468.468,0,0,0-.076-.4A1.913,1.913,0,0,0,454.511,813.611Z" transform="translate(-447.228 -811.469)"/></g></g><path class="e" d="M180.383,515.429s.14,16.3.978,24.883" transform="translate(-173.809 -463.388)"/><path class="f" d="M142.732,695.039a10.176,10.176,0,0,0-2.1.715,3.538,3.538,0,0,0-1.237.857,1.557,1.557,0,0,0-.366,1.409,1.634,1.634,0,0,0,1.573,1.022,4.785,4.785,0,0,0,1.922-.522,1.709,1.709,0,0,0,.68,1.963,2.608,2.608,0,0,0,2.158.267,1.027,1.027,0,0,0,.552-.312,1.156,1.156,0,0,0,.185-.61,16.955,16.955,0,0,0,.085-1.892c.782.581,1.81,1.184,2.663.714a1.764,1.764,0,0,0,.611-2.122A5.148,5.148,0,0,0,148,694.643l-1.5-1.415C144.642,691.466,144.559,694.632,142.732,695.039Z" transform="translate(-137.963 -616.849)"/><g transform="translate(4.328 13.549)"><path class="a" d="M236.305,259.156a29.412,29.412,0,0,1-.757,4.846c-.489,2.481-.3,4.811-1.313,7.214-2,4.724-6.226,7.938-10.1,11.179a35.928,35.928,0,0,1-4.2,3.223c-5.338,3.266-12.842,3.857-18.922,3.857a15.9,15.9,0,0,1-5.139-.916c-2.073-.634-4.451-.042-6.579-.186-4.5-.3-8.512-2.976-12.066-5.853a49.207,49.207,0,0,1-10.072-10.552,18.55,18.55,0,0,1-3.466-8.9,17.558,17.558,0,0,1,.3-4.276,47.619,47.619,0,0,1,3.251-10.057,31.42,31.42,0,0,1,3.422-6.488c1.684-2.292,3.966-3.391,6.061-5.089a36.074,36.074,0,0,1,7.1-4.488,40.483,40.483,0,0,1,34.306-.034,32.581,32.581,0,0,1,15.641,15.2,26.767,26.767,0,0,1,2.527,10.432C236.315,258.573,236.315,258.867,236.305,259.156Z" transform="translate(-163.665 -228.837)"/><g class="g" transform="translate(0 0)"><path class="f" d="M200.449,219.229a23.748,23.748,0,0,1-1.438,9.052,38.132,38.132,0,0,1-4.05,7.209,34.4,34.4,0,0,1-5.114,6.524,21.969,21.969,0,0,1-12.007,5.193,64.359,64.359,0,0,1-13.181-.013c-4.513-.314-9.462-.077-13.9-.967-3.133-.628-7.057-3.23-9.546-5.289a30.656,30.656,0,0,1-4.7-5.681,27.379,27.379,0,0,1-5.163-15.8c0-16.744,15.8-30.319,35.3-30.319a39.168,39.168,0,0,1,21.039,5.97c4.481,2.862,7.848,7.536,10.2,12.409a26.729,26.729,0,0,1,2.31,8.327A33.248,33.248,0,0,1,200.449,219.229Z" transform="translate(-135.688 -194.474)"/></g></g><path class="h" d="M314.307,366.252a4.258,4.258,0,0,0-.259,2.059,2.628,2.628,0,0,0,3.381,2.947l1.483,0a3.971,3.971,0,0,0,1.67-.239c1.1-.5,1.491-1.842,1.737-3.026a3.952,3.952,0,0,0,.091-1.762C321.364,362.107,315.842,363.124,314.307,366.252Z" transform="translate(-289.512 -331.872)"/><path class="h" d="M493.629,355.63a6.506,6.506,0,0,0-.921,6.176,3.72,3.72,0,0,0,1.281,1.784,4.579,4.579,0,0,0,2.652.6,8.577,8.577,0,0,0,5.217-1.456,4.26,4.26,0,0,0,1.551-4.871,6.591,6.591,0,0,0-1.023-1.489c-1.3-1.564-2.061-3.26-4.183-3.2A6.378,6.378,0,0,0,493.629,355.63Z" transform="translate(-443.843 -322.927)"/><path class="i" d="M522.893,377.841a1.5,1.5,0,0,0,1.841,1.468,1.4,1.4,0,0,0,.5-2.257A1.279,1.279,0,0,0,522.893,377.841Z" transform="translate(-470.317 -343.102)"/><path class="i" d="M337.448,381.146a1.2,1.2,0,0,0,1.469,1.171,1.115,1.115,0,0,0,.4-1.8A1.02,1.02,0,0,0,337.448,381.146Z" transform="translate(-309.779 -346.202)"/><path class="j" d="M168.649,145.034c4.716-7.381,13.417-11.431,22.085-12.689s17.478-.108,26.192.777,17.659,1.487,26.109-.817c-3.089,10.9-4.284,24.254-7.065,35.233-3-5.174-6.166-10.844-10.439-11.347-13.964-1.644-24.921-4.99-38.919-3.658-4.5.429-10.684.307-12.825,4.291a47.807,47.807,0,0,0-3.567,7.435c-3.1,9.98-5.753.217-5.659-4.148A28.938,28.938,0,0,1,168.649,145.034Z" transform="translate(-160.111 -131.274)"/><g transform="translate(28.673 66.418)"><path class="k" d="M442.883,627.532c2.348-1.278,5.449-3.077,7.8-4.355.569-.31,1.559-.711,1.992.017a2.159,2.159,0,0,1,.215,1.042,31.539,31.539,0,0,1-.044,4.893c-.162,1.3.235,2.7-.333,3.95a.9.9,0,0,1-.312.409,1.054,1.054,0,0,1-.651.085,28.089,28.089,0,0,1-6.493-1.062c-.888-.292-2.155-.566-2.358-1.561a6.559,6.559,0,0,1-.115-1.77C442.6,628.92,442.644,627.662,442.883,627.532Z" transform="translate(-429.451 -622.742)"/><path class="k" d="M347.752,628.817c-.731-.347-1.759-.729-2.349.068-.882,1.192-.268,3.334-.161,4.679.134,1.672.132,5.292,2.517,5.474a7.955,7.955,0,0,0,2.953-.868l3.5-1.2a2.433,2.433,0,0,0,.813-.4c.657-.562.477-2.32.211-3.069a4.8,4.8,0,0,0-1.955-2.051A31.975,31.975,0,0,0,347.752,628.817Z" transform="translate(-344.934 -627.616)"/><path class="l" d="M447.9,623.493a5.03,5.03,0,0,1,3.383-.974.889.889,0,0,1,.47.2.7.7,0,0,1,.069.81,1.754,1.754,0,0,1-.625.6,22.4,22.4,0,0,1-3.827,1.928,20.339,20.339,0,0,1-3.775,1.366c-.273.049-.765.147-.741-.283.021-.387.58-.576.85-.748.526-.336,1.039-.694,1.556-1.044C446.142,624.745,446.985,624.054,447.9,623.493Z" transform="translate(-429.697 -622.472)"/><path class="l" d="M362.316,632.981l1.194.427c.368.133,1.136.61,1.538.477.775-.258-.746-1.662-.96-1.838a8.174,8.174,0,0,0-2.471-1.353c-.7-.249-4.843-1.6-5.041-.349a.734.734,0,0,0,.3.656,2.174,2.174,0,0,0,.679.323q1.991.678,3.975,1.379Z" transform="translate(-355.006 -628.834)"/><rect class="l" width="4.741" height="4.741" rx="2.37" transform="translate(9.615 4.464)"/></g><g transform="translate(29.942 46.103)"><path class="i" d="M359.731,491.2a6.226,6.226,0,0,0,.865,1.049c1.992,1.935,4.8,2.871,7.366,3.754a14.643,14.643,0,0,0,5.3.95c1.827-.072,4.167-.705,5.078-2.416a6.186,6.186,0,0,0,.561-3.337Z" transform="translate(-359.012 -488.516)"/><path class="h" d="M374.051,471.9c-1.7-.069-19.591-1.265-19.665-.317a3.818,3.818,0,0,0,.711,2.32h19.167C374.223,473.229,374.131,472.555,374.051,471.9Z" transform="translate(-354.378 -471.218)"/></g><g transform="translate(15.39 28.131)"><g transform="translate(0 0)"><path class="m" d="M486.69,356.3h-1.48a9.635,9.635,0,0,1-9.634-9.635v-6.053a1.443,1.443,0,0,1,1.308-1.436L495.8,337.41a.484.484,0,0,1,.529.482v8.775A9.635,9.635,0,0,1,486.69,356.3Z" transform="translate(-444.746 -337.408)"/><path class="m" d="M257.136,356.3h-1.48a9.635,9.635,0,0,1-9.634-9.635v-8.775a.484.484,0,0,1,.529-.482l18.911,1.768a1.443,1.443,0,0,1,1.308,1.436v6.053A9.635,9.635,0,0,1,257.136,356.3Z" transform="translate(-246.022 -337.408)"/></g><line class="m" x2="10.082" transform="translate(20.734 6.585)"/></g><g transform="translate(0 35.073)"><path class="n" d="M133.721,389.389c-1.866,1.238-2.5,4.189-2.221,6.738.18,1.664.916,3.542,2.294,3.767a4.612,4.612,0,0,0,2.128-.5,1.823,1.823,0,0,1,2.064.331l.127.421c-.2-.661.166-3.132.095-4.07-.084-1.109.419-3.437.164-4.323C137.877,390.045,135.19,388.414,133.721,389.389Z" transform="translate(-131.438 -389.096)"/><path class="o" d="M689.365,389.389c1.866,1.238,2.5,4.189,2.222,6.738-.18,1.664-.916,3.542-2.294,3.767a4.612,4.612,0,0,1-2.128-.5,1.823,1.823,0,0,0-2.063.331l-.128.421c.2-.661-.166-3.132-.095-4.07.084-1.109-.419-3.437-.164-4.323C685.21,390.045,687.9,388.414,689.365,389.389Z" transform="translate(-610.345 -389.096)"/></g><g transform="translate(4.448 0.514)"><g class="p" transform="translate(0.001 0)"><path class="q" d="M610.828,134.071a25.231,25.231,0,0,1,3.7-7.7c2.11-3.193,4.621-6.572,4.324-10.388a196.115,196.115,0,0,0,21.345.558,205.4,205.4,0,0,0-10.288,26.846,58.087,58.087,0,0,1-4.089,11.058c-.686,1.259-1.881,2.631-3.268,2.268a3.286,3.286,0,0,1-1.515-1.118,56.752,56.752,0,0,1-5.114-7.111,13.965,13.965,0,0,0-2.411-3.057,10.221,10.221,0,0,1-1.452-1.31c-.487-.625-.335-1.245-.518-1.932-.235-.883-.718-1.671-.9-2.595A12.7,12.7,0,0,1,610.828,134.071Z" transform="translate(-550.536 -118.109)"/></g></g><g transform="translate(73.426 51.398)"><path class="d" d="M678.164,516.075c-.217,2.806,1.664,6.141,3.789,7.834a7.789,7.789,0,0,0,9.108.547c1.817-1.3,2.837-3.418,3.783-5.444l3.91-8.37" transform="translate(-678.147 -510.642)"/></g><path class="a" d="M799.19,467.595a10.168,10.168,0,0,1-1.552-1.586,3.541,3.541,0,0,1-.718-1.323,1.558,1.558,0,0,1,.31-1.422,1.634,1.634,0,0,1,1.865-.2,4.784,4.784,0,0,1,1.48,1.333,1.709,1.709,0,0,1,1.492-1.445,2.61,2.61,0,0,1,2.047.735,1.027,1.027,0,0,1,.352.527,1.161,1.161,0,0,1-.11.628,17,17,0,0,1-.778,1.727c.96-.165,2.15-.24,2.7.565a1.764,1.764,0,0,1-.412,2.169,5.147,5.147,0,0,1-2.148,1.026l-1.975.587C799.282,471.645,800.638,468.783,799.19,467.595Z" transform="translate(-707.5 -417.884)"/><rect class="b" width="96" height="99"/></svg>